<svg width="512" height="512" version="1.1" xmlns="http://www.w3.org/2000/svg" desc="Created with imagetracer.js version 1.2.6" ><path fill="rgb(224,36,36)" stroke="rgb(224,36,36)" stroke-width="1" opacity="0.9921568627450981" d="M 253.5 48 L 273.5 50 L 291.5 56 Q 308.5 64.5 320 78.5 Q 328.8 89.2 334 103.5 L 337 117.5 L 338 135.5 L 337 136.5 L 336 149.5 L 330 166.5 Q 321.7 182.7 308.5 194 Q 296.9 203.4 281.5 209 L 268.5 212 L 252.5 213 L 251.5 212 L 237.5 211 L 216.5 203 Q 202.2 194.8 192 182.5 Q 183.2 171.8 178 157.5 L 174 139.5 L 174 122.5 L 178 102.5 L 183 91.5 Q 191.4 76.4 204.5 66 Q 214.4 57.9 227.5 53 L 242.5 49 L 252.5 49 L 253.5 48 Z M 251 82 L 245 85 Q 239 89 237 97 L 237 112 L 222 112 L 215 115 Q 209 119 207 126 Q 206 135 209 141 Q 216 153 237 150 L 237 166 L 239 171 Q 243 178 253 180 Q 262 181 267 177 Q 278 170 275 150 Q 289 152 297 147 Q 303 143 305 135 Q 306 123 301 119 L 291 112 L 275 112 L 275 98 L 271 89 L 262 82 L 251 82 Z " /><path fill="rgb(0,0,0)" stroke="rgb(0,0,0)" stroke-width="1" opacity="0" d="M 0 0 L 512 0 L 512 178.5 L 511 178.5 Q 511.8 176.3 509.5 177 L 508.5 176 L 365 176 L 365 107.5 L 362.5 105 L 360.5 104 L 334.5 104 L 333 102.5 Q 325.3 80.3 308.5 67 Q 298.3 58.2 284.5 53 L 268.5 49 L 253.5 48 L 252.5 49 L 242.5 49 L 233.5 51 L 216.5 58 Q 201.4 66.4 191 79.5 Q 182.2 90 178 104 L 151.5 104 L 147 107.5 L 146 110.5 L 146 176 L 2.5 176 L 0.5 178 L 0 0 Z " /><path fill="rgb(0,0,0)" stroke="rgb(0,0,0)" stroke-width="1" opacity="0" d="M 511.5 460 L 512 512 L 0.5 512 L 0 511.5 L 0 461.5 L 1.5 462 L 3.5 463 L 508.5 463 L 511.5 460 Z " /><path fill="rgb(202,195,203)" stroke="rgb(202,195,203)" stroke-width="1" opacity="0.9176470588235294" d="M 244.5 85 L 240.5 90 L 244.5 85 Z " /><path fill="rgb(202,195,203)" stroke="rgb(202,195,203)" stroke-width="1" opacity="0.9176470588235294" d="M 268.5 86 L 270.5 89 L 268.5 86 Z " /><path fill="rgb(202,195,203)" stroke="rgb(202,195,203)" stroke-width="1" opacity="0.9176470588235294" d="M 274.5 97 L 275 111.5 L 274 111.5 L 274.5 97 Z " /><path fill="rgb(202,195,203)" stroke="rgb(202,195,203)" stroke-width="1" opacity="0.9176470588235294" d="M 214.5 115 L 210.5 120 L 214.5 115 Z " /><path fill="rgb(202,195,203)" stroke="rgb(202,195,203)" stroke-width="1" opacity="0.9176470588235294" d="M 298.5 116 L 300.5 119 L 298.5 116 Z " /><path fill="rgb(202,195,203)" stroke="rgb(202,195,203)" stroke-width="1" opacity="0.9176470588235294" d="M 174.5 119 L 175 121.5 L 174 121.5 L 174.5 119 Z " /><path fill="rgb(202,195,203)" stroke="rgb(202,195,203)" stroke-width="1" opacity="0.9176470588235294" d="M 337.5 121 L 338 124.5 L 337 124.5 L 337.5 121 Z " /><path fill="rgb(202,195,203)" stroke="rgb(202,195,203)" stroke-width="1" opacity="0.9176470588235294" d="M 337.5 136 L 338 139.5 L 337 139.5 L 337.5 136 Z " /><path fill="rgb(202,195,203)" stroke="rgb(202,195,203)" stroke-width="1" opacity="0.9176470588235294" d="M 174.5 140 L 175 142.5 L 174 142.5 L 174.5 140 Z " /><path fill="rgb(202,195,203)" stroke="rgb(202,195,203)" stroke-width="1" opacity="0.9176470588235294" d="M 223.5 149 L 237 149.5 L 223.5 150 L 223.5 149 Z " /><path fill="rgb(202,195,203)" stroke="rgb(202,195,203)" stroke-width="1" opacity="0.9176470588235294" d="M 275.5 149 L 289 149.5 L 275 150 L 274.5 164 L 274 150.5 L 275.5 149 Z " /><path fill="rgb(202,195,203)" stroke="rgb(202,195,203)" stroke-width="1" opacity="0.9176470588235294" d="M 1.5 177 L 0.5 179 L 1.5 177 Z " /><path fill="rgb(202,195,203)" stroke="rgb(202,195,203)" stroke-width="1" opacity="0.9176470588235294" d="M 190.5 180 L 191.5 182 L 190.5 180 Z " /><path fill="rgb(202,195,203)" stroke="rgb(202,195,203)" stroke-width="1" opacity="0.9176470588235294" d="M 320.5 181 L 318.5 184 L 320.5 181 Z " /><path fill="rgb(202,195,203)" stroke="rgb(202,195,203)" stroke-width="1" opacity="0.9176470588235294" d="M 196.5 187 L 198.5 190 L 196.5 187 Z " /><path fill="rgb(202,195,203)" stroke="rgb(202,195,203)" stroke-width="1" opacity="0.9176470588235294" d="M 204.5 194 L 205.5 196 L 204.5 194 Z " /><path fill="rgb(202,195,203)" stroke="rgb(202,195,203)" stroke-width="1" opacity="0.9176470588235294" d="M 208.5 197 L 209.5 199 L 208.5 197 Z " /><path fill="rgb(202,195,203)" stroke="rgb(202,195,203)" stroke-width="1" opacity="0.9176470588235294" d="M 211.5 199 L 212.5 201 L 211.5 199 Z " /><path fill="rgb(202,195,203)" stroke="rgb(202,195,203)" stroke-width="1" opacity="0.9176470588235294" d="M 247.5 212 L 252 212.5 L 247.5 213 L 247.5 212 Z " /><path fill="rgb(202,195,203)" stroke="rgb(202,195,203)" stroke-width="1" opacity="0.9176470588235294" d="M 260.5 212 L 265 212.5 L 260.5 213 L 260.5 212 Z " /><path fill="rgb(201,208,215)" stroke="rgb(201,208,215)" stroke-width="1" opacity="0.996078431372549" d="M 3.5 176 L 147 176.5 L 3.5 177 L 1 179.5 L 0.5 182 L 0 179.5 L 3.5 176 Z " /><path fill="rgb(201,208,215)" stroke="rgb(201,208,215)" stroke-width="1" opacity="0.996078431372549" d="M 365.5 176 L 508.5 176 L 511 178.5 L 512 180.5 L 512 457.5 L 511 457.5 L 511 180.5 L 510 178 L 507.5 177 L 365.5 177 L 365.5 176 Z " /><path fill="rgb(201,208,215)" stroke="rgb(201,208,215)" stroke-width="1" opacity="0.996078431372549" d="M 50.5 228 L 109 228.5 L 50.5 229 L 50.5 228 Z " /><path fill="rgb(201,208,215)" stroke="rgb(201,208,215)" stroke-width="1" opacity="0.996078431372549" d="M 403.5 228 L 462 228.5 L 403.5 229 L 403.5 228 Z " /><path fill="rgb(201,208,215)" stroke="rgb(201,208,215)" stroke-width="1" opacity="0.996078431372549" d="M 45.5 233 L 46 284.5 L 45 284.5 L 45.5 233 Z " /><path fill="rgb(201,208,215)" stroke="rgb(201,208,215)" stroke-width="1" opacity="0.996078431372549" d="M 466.5 233 L 467 284.5 L 466 284.5 L 466.5 233 Z " /><path fill="rgb(201,208,215)" stroke="rgb(201,208,215)" stroke-width="1" opacity="0.996078431372549" d="M 237.5 255 L 238.5 257 L 237.5 255 Z " /><path fill="rgb(201,208,215)" stroke="rgb(201,208,215)" stroke-width="1" opacity="0.996078431372549" d="M 274.5 255 L 273.5 257 L 274.5 255 Z " /><path fill="rgb(201,208,215)" stroke="rgb(201,208,215)" stroke-width="1" opacity="0.996078431372549" d="M 112.5 287 L 111.5 289 L 112.5 287 Z " /><path fill="rgb(201,208,215)" stroke="rgb(201,208,215)" stroke-width="1" opacity="0.996078431372549" d="M 399.5 287 L 400.5 289 L 399.5 287 Z " /><path fill="rgb(201,208,215)" stroke="rgb(201,208,215)" stroke-width="1" opacity="0.996078431372549" d="M 178.5 315 L 234 315.5 L 178.5 316 L 178.5 315 Z " /><path fill="rgb(201,208,215)" stroke="rgb(201,208,215)" stroke-width="1" opacity="0.996078431372549" d="M 278.5 315 L 334 315.5 L 278.5 316 L 278.5 315 Z " /><path fill="rgb(201,208,215)" stroke="rgb(201,208,215)" stroke-width="1" opacity="0.996078431372549" d="M 45.5 354 L 46 405.5 L 45 405.5 L 45.5 354 Z " /><path fill="rgb(201,208,215)" stroke="rgb(201,208,215)" stroke-width="1" opacity="0.996078431372549" d="M 466.5 354 L 467 405.5 L 466 405.5 L 466.5 354 Z " /><path fill="rgb(201,208,215)" stroke="rgb(201,208,215)" stroke-width="1" opacity="0.996078431372549" d="M 302.5 357 L 304.5 360 L 302.5 357 Z " /><path fill="rgb(201,208,215)" stroke="rgb(201,208,215)" stroke-width="1" opacity="0.996078431372549" d="M 112.5 408 L 111.5 410 L 112.5 408 Z " /><path fill="rgb(201,208,215)" stroke="rgb(201,208,215)" stroke-width="1" opacity="0.996078431372549" d="M 399.5 408 L 400.5 410 L 399.5 408 Z " /><path fill="rgb(201,208,215)" stroke="rgb(201,208,215)" stroke-width="1" opacity="0.996078431372549" d="M 0.5 457 L 4 462.5 L 0 459.5 L 0.5 457 Z " /><path fill="rgb(201,208,215)" stroke="rgb(201,208,215)" stroke-width="1" opacity="0.996078431372549" d="M 510.5 459 L 511 460.5 L 508.5 463 L 361.5 463 L 361.5 462 L 507.5 462 L 510 461 L 510.5 459 Z " /><path fill="rgb(201,208,215)" stroke="rgb(201,208,215)" stroke-width="1" opacity="0.996078431372549" d="M 5.5 462 L 150 462.5 L 5.5 463 L 5.5 462 Z " /><path fill="rgb(223,227,231)" stroke="rgb(223,227,231)" stroke-width="1" opacity="0.8784313725490196" d="M 151.5 104 L 178 104.5 L 151.5 105 L 148 107.5 L 147 110.5 L 146.5 176 L 146 110.5 L 149.5 105 L 151.5 104 Z " /><path fill="rgb(223,227,231)" stroke="rgb(223,227,231)" stroke-width="1" opacity="0.8784313725490196" d="M 334.5 104 L 360.5 104 L 365 107.5 L 364.5 176 L 364 108.5 L 360.5 105 L 334.5 105 L 334.5 104 Z " /><path fill="rgb(223,227,231)" stroke="rgb(223,227,231)" stroke-width="1" opacity="0.8784313725490196" d="M 150.5 462 L 209 462.5 L 150.5 463 L 150.5 462 Z " /><path fill="rgb(223,227,231)" stroke="rgb(223,227,231)" stroke-width="1" opacity="0.8784313725490196" d="M 305.5 462 L 361 462.5 L 305.5 463 L 305.5 462 Z " /><path fill="rgb(228,232,235)" stroke="rgb(228,232,235)" stroke-width="1" opacity="0.996078431372549" d="M 149.5 106 L 148.5 108 L 149.5 106 Z " /><path fill="rgb(48,169,218)" stroke="rgb(48,169,218)" stroke-width="1" opacity="0.996078431372549" d="M 251 353 L 262.5 353 L 263 353.5 L 263 463 L 251.5 463 L 251 462.5 L 251 353 Z " /><path fill="rgb(51,185,238)" stroke="rgb(51,185,238)" stroke-width="1" opacity="0.996078431372549" d="M 48.5 230 L 47.5 232 L 48.5 230 Z " /><path fill="rgb(51,185,238)" stroke="rgb(51,185,238)" stroke-width="1" opacity="0.996078431372549" d="M 463.5 230 L 464.5 232 L 463.5 230 Z " /><path fill="rgb(51,185,238)" stroke="rgb(51,185,238)" stroke-width="1" opacity="0.996078431372549" d="M 173.5 312 L 174.5 314 L 173.5 312 Z " /><path fill="rgb(51,185,238)" stroke="rgb(51,185,238)" stroke-width="1" opacity="0.996078431372549" d="M 49.5 350 L 47.5 353 L 49.5 350 Z " /><path fill="rgb(51,185,238)" stroke="rgb(51,185,238)" stroke-width="1" opacity="0.996078431372549" d="M 462.5 350 L 464.5 353 L 462.5 350 Z " /><path fill="rgb(51,185,238)" stroke="rgb(51,185,238)" stroke-width="1" opacity="0.996078431372549" d="M 250.5 353 L 251 463 L 210 462.5 L 250 462 L 250.5 353 Z " /><path fill="rgb(51,185,238)" stroke="rgb(51,185,238)" stroke-width="1" opacity="0.996078431372549" d="M 300.5 356 L 301.5 358 L 300.5 356 Z " /><path fill="rgb(51,185,238)" stroke="rgb(51,185,238)" stroke-width="1" opacity="0.996078431372549" d="M 47.5 407 L 49.5 410 L 47.5 407 Z " /><path fill="rgb(51,185,238)" stroke="rgb(51,185,238)" stroke-width="1" opacity="0.996078431372549" d="M 464.5 407 L 462.5 410 L 464.5 407 Z " /><path fill="rgb(51,185,238)" stroke="rgb(51,185,238)" stroke-width="1" opacity="0.996078431372549" d="M 263.5 462 L 304 462.5 L 263.5 463 L 263.5 462 Z " /><path fill="rgb(202,208,215)" stroke="rgb(202,208,215)" stroke-width="1" opacity="1" d="M 3.5 177 L 147 177 L 147 458.5 L 149 461.5 L 3.5 462 L 0 456.5 L 0 182.5 L 3.5 177 Z M 51 228 L 49 229 L 45 234 L 45 285 L 50 290 L 110 290 L 112 289 L 114 286 L 114 233 L 109 228 L 51 228 Z M 51 349 L 49 350 L 45 355 L 45 406 L 46 408 L 51 411 L 110 411 L 112 410 L 114 407 L 114 354 L 109 349 L 51 349 Z " /><path fill="rgb(202,208,215)" stroke="rgb(202,208,215)" stroke-width="1" opacity="1" d="M 365 177 L 507.5 177 L 510 178 L 511 180.5 L 511 458.5 L 510 461 L 507.5 462 L 362.5 462 L 364 459.5 L 365 457.5 L 365 177 Z M 404 228 L 398 233 L 398 286 L 399 288 L 403 290 L 463 290 L 467 285 L 467 234 L 466 232 L 462 228 L 404 228 Z M 404 349 L 398 354 L 398 407 L 399 409 L 403 411 L 462 411 L 464 410 L 467 406 L 467 355 L 466 353 L 462 349 L 404 349 Z " /><path fill="rgb(202,208,215)" stroke="rgb(202,208,215)" stroke-width="1" opacity="1" d="M 194.5 185 L 195.5 187 L 194.5 185 Z " /><path fill="rgb(202,208,215)" stroke="rgb(202,208,215)" stroke-width="1" opacity="1" d="M 315.5 187 L 313.5 190 L 315.5 187 Z " /><path fill="rgb(202,208,215)" stroke="rgb(202,208,215)" stroke-width="1" opacity="1" d="M 199.5 190 L 200.5 192 L 199.5 190 Z " /><path fill="rgb(51,185,239)" stroke="rgb(51,185,239)" stroke-width="1" opacity="1" d="M 51.5 229 L 107.5 229 L 112 231.5 L 113 233.5 L 113 284.5 L 109.5 289 L 50.5 289 L 47 286.5 L 46 283.5 L 46 234.5 L 49.5 230 L 51.5 229 Z " /><path fill="rgb(51,185,239)" stroke="rgb(51,185,239)" stroke-width="1" opacity="1" d="M 404.5 229 L 460.5 229 L 465 232.5 L 466 234.5 L 466 283.5 L 463.5 288 L 461.5 289 L 403.5 289 L 400 286.5 L 399 284.5 L 399 233.5 L 401.5 230 L 404.5 229 Z " /><path fill="rgb(51,185,239)" stroke="rgb(51,185,239)" stroke-width="1" opacity="1" d="M 176.5 255 L 235.5 255 L 239 257.5 L 240 260.5 L 240 308.5 L 239 313 L 235.5 315 L 176.5 315 L 172 308.5 L 172 261.5 L 174 256 L 176.5 255 Z " /><path fill="rgb(51,185,239)" stroke="rgb(51,185,239)" stroke-width="1" opacity="1" d="M 276.5 255 L 335.5 255 L 339 258.5 L 339 310.5 L 336.5 314 L 334.5 315 L 276.5 315 L 273 313 L 272 309.5 L 272 260.5 L 274.5 256 L 276.5 255 Z " /><path fill="rgb(51,185,239)" stroke="rgb(51,185,239)" stroke-width="1" opacity="1" d="M 50.5 350 L 108.5 350 L 112 352.5 L 113 354.5 L 113 405.5 L 110.5 409 L 108.5 410 L 50.5 410 L 46 404.5 L 46 355.5 L 50.5 350 Z " /><path fill="rgb(51,185,239)" stroke="rgb(51,185,239)" stroke-width="1" opacity="1" d="M 403.5 350 L 461.5 350 L 465 353.5 L 466 355.5 L 466 404.5 L 461.5 410 L 403.5 410 L 400 407.5 L 399 405.5 L 399 354.5 L 401.5 351 L 403.5 350 Z " /><path fill="rgb(51,185,239)" stroke="rgb(51,185,239)" stroke-width="1" opacity="1" d="M 222.5 353 L 224.5 353 L 249.5 353 L 250 353.5 L 250 462 L 208.5 462 L 206 459.5 L 205 456.5 L 205 371.5 L 208 361.5 L 212.5 357 L 217.5 354 L 222.5 353 Z " /><path fill="rgb(51,185,239)" stroke="rgb(51,185,239)" stroke-width="1" opacity="1" d="M 263 353 L 290.5 353 Q 291.7 355.3 296.5 354 L 305 360.5 L 308 366.5 L 308 458.5 L 305.5 462 L 263 462 L 263 353 Z " /><path fill="rgb(145,202,228)" stroke="rgb(145,202,228)" stroke-width="1" opacity="0.996078431372549" d="M 110.5 229 L 112.5 232 L 110.5 229 Z " /><path fill="rgb(145,202,228)" stroke="rgb(145,202,228)" stroke-width="1" opacity="0.996078431372549" d="M 401.5 229 L 399.5 232 L 401.5 229 Z " /><path fill="rgb(145,202,228)" stroke="rgb(145,202,228)" stroke-width="1" opacity="0.996078431372549" d="M 113.5 233 L 114 284.5 L 113 284.5 L 113.5 233 Z " /><path fill="rgb(145,202,228)" stroke="rgb(145,202,228)" stroke-width="1" opacity="0.996078431372549" d="M 398.5 233 L 399 284.5 L 398 284.5 L 398.5 233 Z " /><path fill="rgb(145,202,228)" stroke="rgb(145,202,228)" stroke-width="1" opacity="0.996078431372549" d="M 178.5 254 L 235 254.5 L 178.5 255 L 178.5 254 Z " /><path fill="rgb(145,202,228)" stroke="rgb(145,202,228)" stroke-width="1" opacity="0.996078431372549" d="M 277.5 254 L 334 254.5 L 277.5 255 L 277.5 254 Z " /><path fill="rgb(145,202,228)" stroke="rgb(145,202,228)" stroke-width="1" opacity="0.996078431372549" d="M 339.5 259 L 340 310.5 L 339 310.5 L 339.5 259 Z " /><path fill="rgb(145,202,228)" stroke="rgb(145,202,228)" stroke-width="1" opacity="0.996078431372549" d="M 46.5 286 L 48.5 289 L 46.5 286 Z " /><path fill="rgb(145,202,228)" stroke="rgb(145,202,228)" stroke-width="1" opacity="0.996078431372549" d="M 465.5 286 L 463.5 289 L 465.5 286 Z " /><path fill="rgb(145,202,228)" stroke="rgb(145,202,228)" stroke-width="1" opacity="0.996078431372549" d="M 50.5 289 L 109 289.5 L 50.5 290 L 50.5 289 Z " /><path fill="rgb(145,202,228)" stroke="rgb(145,202,228)" stroke-width="1" opacity="0.996078431372549" d="M 403.5 289 L 462 289.5 L 403.5 290 L 403.5 289 Z " /><path fill="rgb(145,202,228)" stroke="rgb(145,202,228)" stroke-width="1" opacity="0.996078431372549" d="M 338.5 312 L 336.5 315 L 338.5 312 Z " /><path fill="rgb(145,202,228)" stroke="rgb(145,202,228)" stroke-width="1" opacity="0.996078431372549" d="M 51.5 349 L 108 349.5 L 51.5 350 L 51.5 349 Z " /><path fill="rgb(145,202,228)" stroke="rgb(145,202,228)" stroke-width="1" opacity="0.996078431372549" d="M 404.5 349 L 461 349.5 L 404.5 350 L 404.5 349 Z " /><path fill="rgb(145,202,228)" stroke="rgb(145,202,228)" stroke-width="1" opacity="0.996078431372549" d="M 48.5 350 L 47.5 352 L 48.5 350 Z " /><path fill="rgb(145,202,228)" stroke="rgb(145,202,228)" stroke-width="1" opacity="0.996078431372549" d="M 110.5 350 L 112.5 353 L 110.5 350 Z " /><path fill="rgb(145,202,228)" stroke="rgb(145,202,228)" stroke-width="1" opacity="0.996078431372549" d="M 401.5 350 L 399.5 353 L 401.5 350 Z " /><path fill="rgb(145,202,228)" stroke="rgb(145,202,228)" stroke-width="1" opacity="0.996078431372549" d="M 463.5 350 L 464.5 352 L 463.5 350 Z " /><path fill="rgb(145,202,228)" stroke="rgb(145,202,228)" stroke-width="1" opacity="0.996078431372549" d="M 113.5 354 L 114 405.5 L 113 405.5 L 113.5 354 Z " /><path fill="rgb(145,202,228)" stroke="rgb(145,202,228)" stroke-width="1" opacity="0.996078431372549" d="M 398.5 354 L 399 405.5 L 398 405.5 L 398.5 354 Z " /><path fill="rgb(145,202,228)" stroke="rgb(145,202,228)" stroke-width="1" opacity="0.996078431372549" d="M 211.5 357 L 209.5 360 L 211.5 357 Z " /><path fill="rgb(145,202,228)" stroke="rgb(145,202,228)" stroke-width="1" opacity="0.996078431372549" d="M 308.5 368 L 309 458.5 L 308 458.5 L 308.5 368 Z " /><path fill="rgb(145,202,228)" stroke="rgb(145,202,228)" stroke-width="1" opacity="0.996078431372549" d="M 112.5 407 L 110.5 410 L 112.5 407 Z " /><path fill="rgb(145,202,228)" stroke="rgb(145,202,228)" stroke-width="1" opacity="0.996078431372549" d="M 399.5 407 L 401.5 410 L 399.5 407 Z " /><path fill="rgb(145,202,228)" stroke="rgb(145,202,228)" stroke-width="1" opacity="0.996078431372549" d="M 47.5 408 L 48.5 410 L 47.5 408 Z " /><path fill="rgb(145,202,228)" stroke="rgb(145,202,228)" stroke-width="1" opacity="0.996078431372549" d="M 464.5 408 L 463.5 410 L 464.5 408 Z " /><path fill="rgb(145,202,228)" stroke="rgb(145,202,228)" stroke-width="1" opacity="0.996078431372549" d="M 51.5 410 L 108 410.5 L 51.5 411 L 51.5 410 Z " /><path fill="rgb(145,202,228)" stroke="rgb(145,202,228)" stroke-width="1" opacity="0.996078431372549" d="M 404.5 410 L 461 410.5 L 404.5 411 L 404.5 410 Z " /><path fill="rgb(145,202,228)" stroke="rgb(145,202,228)" stroke-width="1" opacity="0.996078431372549" d="M 206.5 460 L 207.5 462 L 206.5 460 Z " /><path fill="rgb(145,202,228)" stroke="rgb(145,202,228)" stroke-width="1" opacity="0.996078431372549" d="M 307.5 460 L 306.5 462 L 307.5 460 Z " /><path fill="rgb(228,232,235)" stroke="rgb(228,232,235)" stroke-width="1" opacity="1" d="M 252.5 82 Q 266.2 81.3 271 89.5 L 274 95.5 L 274 112 L 292.5 113 L 302 120.5 L 304 124.5 L 305 132.5 Q 303.3 140.3 298.5 145 L 290.5 149 L 274 149 L 274 166.5 L 268.5 175 L 261.5 179 L 255.5 180 L 247.5 178 L 241 172.5 Q 235 164.3 237 149 L 220.5 149 L 211 142.5 Q 205.8 138.2 207 127.5 Q 209.2 119.2 215.5 115 Q 223.3 110.1 237 112 Q 234.3 92 245.5 85 L 252.5 82 Z " /><path fill="rgb(228,232,235)" stroke="rgb(228,232,235)" stroke-width="1" opacity="1" d="M 151.5 105 L 178 105.5 L 174 118.5 L 174 142.5 Q 180 174.5 200.5 192 Q 214.4 205.1 235.5 211 L 246.5 213 L 264.5 213 L 285.5 208 Q 303.7 200.7 316 187.5 Q 326.7 176.2 333 160.5 L 338 140.5 L 338 121.5 L 334 105 L 359.5 105 L 364 108.5 L 364 176.5 L 365 177.5 L 365 457.5 L 361.5 462 L 307 461.5 L 309 458.5 L 309 367.5 L 302.5 357 L 295.5 353 L 218.5 353 Q 211.8 355.3 208 360.5 L 205 367.5 L 205 459.5 L 206.5 462 L 149.5 462 L 148 460.5 L 147 458.5 L 147 111.5 L 151.5 105 Z M 178 254 L 173 256 L 172 259 L 172 312 L 179 316 L 234 316 L 239 314 L 240 312 L 240 259 L 239 257 L 235 254 L 178 254 Z M 278 254 L 275 255 L 272 259 L 272 312 L 273 314 L 279 316 L 334 316 L 337 315 L 340 311 L 340 260 L 339 258 L 335 254 L 278 254 Z " /></svg>