<svg width="512" height="512" version="1.1" xmlns="http://www.w3.org/2000/svg" desc="Created with imagetracer.js version 1.2.6" ><path fill="rgb(11,120,23)" stroke="rgb(11,120,23)" stroke-width="1" opacity="1" d="M 275 117 L 483 117 L 483 500 L 425.5 500 L 425 499.5 L 425 481.5 L 422 467.5 Q 417.4 457.1 409.5 450 Q 401.8 443.2 390.5 440 L 373.5 439 Q 352.1 442.6 342 457.5 Q 336.3 465.3 334 476.5 L 334 500 L 275.5 500 L 275 499.5 L 275 117 Z M 306 125 L 304 126 L 298 134 Q 297 141 301 144 L 301 209 L 303 210 L 369 210 L 370 209 L 370 143 L 373 137 L 371 130 L 366 125 L 306 125 Z M 394 125 L 392 126 L 386 133 Q 385 140 388 143 L 388 208 L 391 210 L 457 210 L 458 209 L 458 143 L 460 140 L 459 131 L 453 125 L 394 125 Z M 307 230 L 303 232 L 298 240 Q 297 246 301 249 L 301 314 L 303 315 L 369 315 L 370 314 L 370 249 L 373 243 Q 373 236 370 234 L 365 230 L 307 230 Z M 394 230 L 392 231 L 386 238 Q 385 245 388 248 L 388 314 L 390 315 L 457 315 L 458 314 L 458 248 L 460 245 L 459 236 L 453 230 L 394 230 Z M 307 335 L 303 337 L 298 345 Q 297 351 301 354 L 301 420 L 369 420 L 370 419 L 370 354 L 373 348 L 372 342 Q 370 336 364 335 L 307 335 Z M 395 335 L 391 337 L 386 344 Q 385 350 388 353 L 388 419 L 390 420 L 457 420 L 458 419 L 458 353 L 460 350 L 459 341 L 452 335 L 395 335 Z " /><path fill="rgb(11,120,23)" stroke="rgb(11,120,23)" stroke-width="1" opacity="1" d="M 131.5 439 L 134 439.5 L 131.5 440 L 131.5 439 Z " /><path fill="rgb(7,8,7)" stroke="rgb(7,8,7)" stroke-width="1" opacity="0.996078431372549" d="M 145.5 8 L 192.5 8 L 196 10.5 L 196 42.5 L 197.5 44 L 238.5 44 L 240 45.5 L 252 103.5 L 253 113.5 Q 249.7 119 240 117 L 240 504 L 26.5 504 L 25 502.5 L 25 117 Q 16.3 118.9 13 114.5 L 13 106.5 L 16 95.5 L 16 90.5 L 21 69.5 L 24 49.5 L 27.5 44 L 141.5 44 L 142 43.5 L 142 11.5 L 143 9 L 145.5 8 Z M 146 12 L 146 47 L 144 48 L 30 48 L 28 50 L 25 70 L 21 86 L 21 91 L 17 107 Q 16 113 18 113 L 249 113 L 237 48 L 195 48 L 192 46 L 192 12 L 146 12 Z M 28 117 L 28 501 L 29 501 L 88 501 L 88 477 Q 90 464 97 457 Q 106 444 125 440 Q 137 438 146 441 Q 157 445 165 452 L 174 466 L 178 482 L 178 501 L 237 501 L 237 117 L 28 117 Z M 131 443 L 117 446 L 107 452 Q 96 460 92 476 L 92 500 L 93 500 L 174 500 L 174 479 L 171 468 L 167 461 Q 159 450 147 445 L 131 443 Z " /><path fill="rgb(7,8,7)" stroke="rgb(7,8,7)" stroke-width="1" opacity="0.996078431372549" d="M 391.5 8 L 439.5 8 L 442 10.5 L 443 12.5 L 443 44 L 484.5 44 L 487 46.5 L 499 106.5 L 499 114.5 Q 495.7 118.9 487 117 L 487 502.5 L 485.5 504 L 272 504 L 272 117.5 L 271.5 117 L 263.5 117 L 259 113.5 L 270 51.5 L 273.5 44 L 387.5 44 L 389 42.5 L 389 10.5 L 391.5 8 Z M 394 12 L 392 14 L 392 47 L 390 48 L 275 48 L 263 110 L 264 113 L 495 113 L 495 107 L 491 91 L 491 86 L 486 65 L 484 50 L 483 48 L 442 48 L 441 47 L 439 47 L 439 12 L 394 12 Z M 275 117 L 275 500 L 277 501 L 333 501 L 334 500 L 334 478 L 335 473 L 343 457 L 355 446 L 369 440 Q 374 442 376 439 L 394 441 Q 404 444 411 451 L 421 466 L 424 475 L 424 483 L 425 484 L 425 501 L 426 501 L 483 501 L 483 117 L 275 117 Z M 377 443 L 364 446 L 355 451 Q 341 460 338 479 L 338 500 L 339 500 L 420 500 L 420 476 Q 418 465 412 459 Q 406 450 396 446 L 389 444 L 377 443 Z " /><path fill="rgb(7,8,7)" stroke="rgb(7,8,7)" stroke-width="1" opacity="0.996078431372549" d="M 61.5 125 L 116.5 125 L 123 128 Q 125.7 131 126 137.5 L 123 142.5 L 123 209 L 55 209 L 55 143.5 Q 52 140.5 52 134.5 L 56.5 127 L 61.5 125 Z M 61 129 L 59 130 Q 55 132 56 139 L 58 140 L 121 140 L 122 138 L 121 133 L 118 129 L 61 129 Z M 58 144 L 58 206 L 120 206 L 120 144 L 58 144 Z " /><path fill="rgb(7,8,7)" stroke="rgb(7,8,7)" stroke-width="1" opacity="0.996078431372549" d="M 148.5 125 L 204.5 125 L 212 130.5 L 213 139.5 L 211 142.5 L 211 207.5 L 209.5 209 L 143.5 209 L 142 207.5 L 142 141.5 Q 139 139.5 140 133.5 L 144.5 127 L 148.5 125 Z M 149 129 L 147 130 Q 143 132 144 139 L 146 140 L 209 140 L 210 137 L 209 133 L 205 129 L 149 129 Z M 145 144 L 145 206 L 208 206 L 208 144 L 145 144 Z " /><path fill="rgb(7,8,7)" stroke="rgb(7,8,7)" stroke-width="1" opacity="0.996078431372549" d="M 306.5 125 L 364.5 125 L 370 128.5 Q 373.6 131.4 372 139.5 L 370 142.5 L 370 209 L 367.5 210 L 302.5 210 L 301 208.5 L 301 143.5 Q 298 140.5 298 134.5 L 302.5 127 L 306.5 125 Z M 308 129 L 306 130 L 302 136 L 303 138 L 304 140 L 367 140 Q 370 139 368 133 L 364 129 L 308 129 Z M 304 144 L 304 206 L 367 206 L 367 144 L 304 144 Z " /><path fill="rgb(7,8,7)" stroke="rgb(7,8,7)" stroke-width="1" opacity="0.996078431372549" d="M 393.5 125 L 452.5 125 L 459 130.5 L 460 139.5 L 458 142.5 L 458 207.5 L 455.5 210 L 390.5 210 L 388 207.5 L 388 141.5 Q 385 139.5 386 133.5 L 391.5 126 L 393.5 125 Z M 395 129 L 390 135 L 391 140 L 455 140 L 456 139 L 455 132 L 452 129 L 395 129 Z M 392 144 L 392 206 L 454 206 L 454 144 L 392 144 Z " /><path fill="rgb(7,8,7)" stroke="rgb(7,8,7)" stroke-width="1" opacity="0.996078431372549" d="M 62.5 230 L 115.5 230 L 119.5 231 L 125 236.5 L 126 242.5 L 123 248.5 L 123 314 L 55 314 L 55 248.5 Q 52 245.5 52 239.5 L 55 233 L 62.5 230 Z M 62 234 L 56 239 Q 55 244 58 245 L 121 245 L 122 244 L 121 238 L 117 234 L 62 234 Z M 58 249 L 58 311 L 120 311 L 120 249 L 58 249 Z " /><path fill="rgb(7,8,7)" stroke="rgb(7,8,7)" stroke-width="1" opacity="0.996078431372549" d="M 149.5 230 L 203.5 230 Q 209.3 231.3 212 235.5 L 213 244.5 L 211 247.5 L 211 314 L 143.5 314 L 142 312.5 L 142 247.5 Q 138.8 245.2 140 238.5 L 144.5 232 L 149.5 230 Z M 149 234 L 147 235 L 144 239 Q 143 245 145 245 L 209 245 L 210 242 L 209 238 L 205 234 L 149 234 Z M 145 249 L 145 311 L 208 311 L 208 249 L 145 249 Z " /><path fill="rgb(7,8,7)" stroke="rgb(7,8,7)" stroke-width="1" opacity="0.996078431372549" d="M 306.5 230 L 364.5 230 L 371 235.5 Q 373.3 238.7 372 245.5 L 370 247.5 L 370 313.5 L 368.5 315 L 302.5 315 L 301 313.5 L 301 248.5 Q 298 245.5 298 239.5 L 302.5 232 L 306.5 230 Z M 308 234 L 306 235 L 302 241 L 303 243 L 304 245 L 368 245 L 367 237 L 364 234 L 308 234 Z M 304 249 L 304 311 L 367 311 L 367 249 L 304 249 Z " /><path fill="rgb(7,8,7)" stroke="rgb(7,8,7)" stroke-width="1" opacity="0.996078431372549" d="M 394.5 230 L 451.5 230 L 459 235.5 L 460 244.5 L 458 247.5 L 458 313.5 L 456.5 315 L 389.5 315 L 389 313.5 L 388 312.5 L 388 247.5 Q 385.2 244.8 386 238.5 L 391.5 231 L 394.5 230 Z M 396 234 L 394 235 Q 389 237 390 244 L 392 245 L 455 245 Q 457 244 456 239 L 451 234 L 396 234 Z M 392 249 L 392 311 L 454 311 L 454 249 L 392 249 Z " /><path fill="rgb(7,8,7)" stroke="rgb(7,8,7)" stroke-width="1" opacity="0.996078431372549" d="M 307.5 335 L 363.5 335 L 371 340.5 Q 373.3 343.7 372 350.5 L 370 353.5 L 370 418.5 L 368.5 420 L 302.5 420 L 301 418.5 L 301 353.5 Q 298 350.5 298 344.5 Q 299.4 338.4 304.5 336 L 307.5 335 Z M 309 339 L 306 340 L 302 346 L 303 348 L 304 350 L 368 350 Q 369 344 367 341 L 363 339 L 309 339 Z M 304 354 L 304 417 L 366 417 L 367 416 L 367 354 L 304 354 Z " /><path fill="rgb(7,8,7)" stroke="rgb(7,8,7)" stroke-width="1" opacity="0.996078431372549" d="M 395.5 335 L 451.5 335 L 458 339.5 Q 461 342.5 460 349.5 L 458 352.5 L 458 418.5 L 456.5 420 L 389.5 420 L 389 418.5 L 388 417.5 L 388 352.5 Q 384.8 350.2 386 343.5 L 390.5 337 L 395.5 335 Z M 396 339 L 394 340 L 390 345 Q 389 349 392 350 L 455 350 L 456 349 L 455 343 L 451 339 L 396 339 Z M 392 354 L 392 417 L 454 417 L 454 354 L 392 354 Z " /><path fill="rgb(7,8,7)" stroke="rgb(7,8,7)" stroke-width="1" opacity="0.996078431372549" d="M 59.5 336 L 118.5 336 L 124 340.5 L 126 347.5 L 123 353.5 L 123 418.5 L 121.5 420 L 56.5 420 L 55 418.5 L 55 353.5 Q 51.3 351.2 52 344.5 L 57.5 337 L 59.5 336 Z M 62 339 L 60 340 L 56 345 Q 55 349 58 350 L 121 350 L 122 349 L 121 343 L 117 339 L 62 339 Z M 58 354 L 58 417 L 120 417 L 120 354 L 58 354 Z " /><path fill="rgb(7,8,7)" stroke="rgb(7,8,7)" stroke-width="1" opacity="0.996078431372549" d="M 146.5 336 L 206.5 336 L 212 340.5 L 213 349.5 L 211 352.5 L 211 419 L 208.5 420 L 144.5 420 L 142 419 L 142 352.5 Q 138.8 350.2 140 343.5 L 143.5 338 L 146.5 336 Z M 150 339 L 145 341 L 144 344 Q 143 350 145 350 L 209 350 L 210 347 L 208 342 L 204 339 L 150 339 Z M 145 354 L 145 416 L 147 417 L 208 417 L 208 354 L 145 354 Z " /><path fill="rgb(0,0,0)" stroke="rgb(0,0,0)" stroke-width="1" opacity="0.2980392156862745" d="M 146.5 7 L 192 7.5 L 146.5 8 L 146.5 7 Z " /><path fill="rgb(0,0,0)" stroke="rgb(0,0,0)" stroke-width="1" opacity="0.2980392156862745" d="M 393.5 7 L 439 7.5 L 393.5 8 L 393.5 7 Z " /><path fill="rgb(0,0,0)" stroke="rgb(0,0,0)" stroke-width="1" opacity="0.2980392156862745" d="M 390.5 8 L 389.5 10 L 390.5 8 Z " /><path fill="rgb(0,0,0)" stroke="rgb(0,0,0)" stroke-width="1" opacity="0.2980392156862745" d="M 440.5 8 L 443 11.5 L 442 11.5 L 440.5 8 Z " /><path fill="rgb(0,0,0)" stroke="rgb(0,0,0)" stroke-width="1" opacity="0.2980392156862745" d="M 196.5 11 L 197 43 L 238 43.5 L 197.5 44 L 196 42.5 L 196.5 11 Z " /><path fill="rgb(0,0,0)" stroke="rgb(0,0,0)" stroke-width="1" opacity="0.2980392156862745" d="M 388.5 11 L 389 42.5 L 387.5 44 L 274.5 44 L 274.5 43 L 387.5 43 L 388 42.5 L 388.5 11 Z " /><path fill="rgb(0,0,0)" stroke="rgb(0,0,0)" stroke-width="1" opacity="0.2980392156862745" d="M 28.5 43 L 142 43.5 L 28.5 44 L 28.5 43 Z " /><path fill="rgb(0,0,0)" stroke="rgb(0,0,0)" stroke-width="1" opacity="0.2980392156862745" d="M 443.5 43 L 484 43.5 L 443.5 44 L 443.5 43 Z " /><path fill="rgb(0,0,0)" stroke="rgb(0,0,0)" stroke-width="1" opacity="0.2980392156862745" d="M 26.5 44 L 25.5 46 L 26.5 44 Z " /><path fill="rgb(0,0,0)" stroke="rgb(0,0,0)" stroke-width="1" opacity="0.2980392156862745" d="M 485.5 44 L 486.5 46 L 485.5 44 Z " /><path fill="rgb(0,0,0)" stroke="rgb(0,0,0)" stroke-width="1" opacity="0.2980392156862745" d="M 241.5 48 L 242 50.5 L 241 50.5 L 241.5 48 Z " /><path fill="rgb(0,0,0)" stroke="rgb(0,0,0)" stroke-width="1" opacity="0.2980392156862745" d="M 270.5 48 L 271 50.5 L 270 50.5 L 270.5 48 Z " /><path fill="rgb(0,0,0)" stroke="rgb(0,0,0)" stroke-width="1" opacity="0.2980392156862745" d="M 23.5 51 L 24 53.5 L 23 53.5 L 23.5 51 Z " /><path fill="rgb(0,0,0)" stroke="rgb(0,0,0)" stroke-width="1" opacity="0.2980392156862745" d="M 488.5 51 L 489 53.5 L 488 53.5 L 488.5 51 Z " /><path fill="rgb(0,0,0)" stroke="rgb(0,0,0)" stroke-width="1" opacity="0.2980392156862745" d="M 269.5 53 L 270 55.5 L 269 55.5 L 269.5 53 Z " /><path fill="rgb(0,0,0)" stroke="rgb(0,0,0)" stroke-width="1" opacity="0.2980392156862745" d="M 242.5 54 L 243 56.5 L 242 56.5 L 242.5 54 Z " /><path fill="rgb(0,0,0)" stroke="rgb(0,0,0)" stroke-width="1" opacity="0.2980392156862745" d="M 22.5 56 L 23 58.5 L 22 58.5 L 22.5 56 Z " /><path fill="rgb(0,0,0)" stroke="rgb(0,0,0)" stroke-width="1" opacity="0.2980392156862745" d="M 489.5 56 L 490 58.5 L 489 58.5 L 489.5 56 Z " /><path fill="rgb(0,0,0)" stroke="rgb(0,0,0)" stroke-width="1" opacity="0.2980392156862745" d="M 243.5 59 L 244 61.5 L 243 61.5 L 243.5 59 Z " /><path fill="rgb(0,0,0)" stroke="rgb(0,0,0)" stroke-width="1" opacity="0.2980392156862745" d="M 268.5 59 L 269 61.5 L 268 61.5 L 268.5 59 Z " /><path fill="rgb(0,0,0)" stroke="rgb(0,0,0)" stroke-width="1" opacity="0.2980392156862745" d="M 21.5 61 L 22 63.5 L 21 63.5 L 21.5 61 Z " /><path fill="rgb(0,0,0)" stroke="rgb(0,0,0)" stroke-width="1" opacity="0.2980392156862745" d="M 244.5 64 L 245 66.5 L 244 66.5 L 244.5 64 Z " /><path fill="rgb(0,0,0)" stroke="rgb(0,0,0)" stroke-width="1" opacity="0.2980392156862745" d="M 267.5 64 L 268 66.5 L 267 66.5 L 267.5 64 Z " /><path fill="rgb(0,0,0)" stroke="rgb(0,0,0)" stroke-width="1" opacity="0.2980392156862745" d="M 20.5 67 L 21 69.5 L 20 69.5 L 20.5 67 Z " /><path fill="rgb(0,0,0)" stroke="rgb(0,0,0)" stroke-width="1" opacity="0.2980392156862745" d="M 491.5 67 L 492 69.5 L 491 69.5 L 491.5 67 Z " /><path fill="rgb(0,0,0)" stroke="rgb(0,0,0)" stroke-width="1" opacity="0.2980392156862745" d="M 245.5 69 L 246 71.5 L 245 71.5 L 245.5 69 Z " /><path fill="rgb(0,0,0)" stroke="rgb(0,0,0)" stroke-width="1" opacity="0.2980392156862745" d="M 266.5 69 L 267 71.5 L 266 71.5 L 266.5 69 Z " /><path fill="rgb(0,0,0)" stroke="rgb(0,0,0)" stroke-width="1" opacity="0.2980392156862745" d="M 19.5 72 L 20 74.5 L 19 74.5 L 19.5 72 Z " /><path fill="rgb(0,0,0)" stroke="rgb(0,0,0)" stroke-width="1" opacity="0.2980392156862745" d="M 492.5 72 L 493 74.5 L 492 74.5 L 492.5 72 Z " /><path fill="rgb(0,0,0)" stroke="rgb(0,0,0)" stroke-width="1" opacity="0.2980392156862745" d="M 265.5 74 L 266 76.5 L 265 76.5 L 265.5 74 Z " /><path fill="rgb(0,0,0)" stroke="rgb(0,0,0)" stroke-width="1" opacity="0.2980392156862745" d="M 18.5 77 L 19 79.5 L 18 79.5 L 18.5 77 Z " /><path fill="rgb(0,0,0)" stroke="rgb(0,0,0)" stroke-width="1" opacity="0.2980392156862745" d="M 493.5 77 L 494 79.5 L 493 79.5 L 493.5 77 Z " /><path fill="rgb(0,0,0)" stroke="rgb(0,0,0)" stroke-width="1" opacity="0.2980392156862745" d="M 247.5 80 L 248 82.5 L 247 82.5 L 247.5 80 Z " /><path fill="rgb(0,0,0)" stroke="rgb(0,0,0)" stroke-width="1" opacity="0.2980392156862745" d="M 17.5 82 L 18 84.5 L 17 84.5 L 17.5 82 Z " /><path fill="rgb(0,0,0)" stroke="rgb(0,0,0)" stroke-width="1" opacity="0.2980392156862745" d="M 248.5 85 L 249 87.5 L 248 87.5 L 248.5 85 Z " /><path fill="rgb(0,0,0)" stroke="rgb(0,0,0)" stroke-width="1" opacity="0.2980392156862745" d="M 263.5 85 L 264 87.5 L 263 87.5 L 263.5 85 Z " /><path fill="rgb(0,0,0)" stroke="rgb(0,0,0)" stroke-width="1" opacity="0.2980392156862745" d="M 495.5 88 L 496 90.5 L 495 90.5 L 495.5 88 Z " /><path fill="rgb(0,0,0)" stroke="rgb(0,0,0)" stroke-width="1" opacity="0.2980392156862745" d="M 249.5 90 L 250 92.5 L 249 92.5 L 249.5 90 Z " /><path fill="rgb(0,0,0)" stroke="rgb(0,0,0)" stroke-width="1" opacity="0.2980392156862745" d="M 262.5 90 L 263 92.5 L 262 92.5 L 262.5 90 Z " /><path fill="rgb(0,0,0)" stroke="rgb(0,0,0)" stroke-width="1" opacity="0.2980392156862745" d="M 15.5 93 L 16 95.5 L 15 95.5 L 15.5 93 Z " /><path fill="rgb(0,0,0)" stroke="rgb(0,0,0)" stroke-width="1" opacity="0.2980392156862745" d="M 496.5 93 L 497 95.5 L 496 95.5 L 496.5 93 Z " /><path fill="rgb(0,0,0)" stroke="rgb(0,0,0)" stroke-width="1" opacity="0.2980392156862745" d="M 250.5 95 L 251 97.5 L 250 97.5 L 250.5 95 Z " /><path fill="rgb(0,0,0)" stroke="rgb(0,0,0)" stroke-width="1" opacity="0.2980392156862745" d="M 261.5 95 L 262 97.5 L 261 97.5 L 261.5 95 Z " /><path fill="rgb(0,0,0)" stroke="rgb(0,0,0)" stroke-width="1" opacity="0.2980392156862745" d="M 14.5 98 L 15 100.5 L 14 100.5 L 14.5 98 Z " /><path fill="rgb(0,0,0)" stroke="rgb(0,0,0)" stroke-width="1" opacity="0.2980392156862745" d="M 497.5 98 L 498 100.5 L 497 100.5 L 497.5 98 Z " /><path fill="rgb(0,0,0)" stroke="rgb(0,0,0)" stroke-width="1" opacity="0.2980392156862745" d="M 13.5 103 L 14 105.5 L 13 105.5 L 13.5 103 Z " /><path fill="rgb(0,0,0)" stroke="rgb(0,0,0)" stroke-width="1" opacity="0.2980392156862745" d="M 498.5 103 L 499 105.5 L 498 105.5 L 498.5 103 Z " /><path fill="rgb(0,0,0)" stroke="rgb(0,0,0)" stroke-width="1" opacity="0.2980392156862745" d="M 252.5 106 L 253 108.5 L 252 108.5 L 252.5 106 Z " /><path fill="rgb(0,0,0)" stroke="rgb(0,0,0)" stroke-width="1" opacity="0.2980392156862745" d="M 259.5 106 L 260 108.5 L 259 108.5 L 259.5 106 Z " /><path fill="rgb(0,0,0)" stroke="rgb(0,0,0)" stroke-width="1" opacity="0.2980392156862745" d="M 12.5 109 L 13 113.5 L 12 113.5 L 12.5 109 Z " /><path fill="rgb(0,0,0)" stroke="rgb(0,0,0)" stroke-width="1" opacity="0.2980392156862745" d="M 499.5 109 L 500 113.5 L 499 113.5 L 499.5 109 Z " /><path fill="rgb(0,0,0)" stroke="rgb(0,0,0)" stroke-width="1" opacity="0.2980392156862745" d="M 252.5 114 L 250.5 117 L 249 116.5 L 252.5 114 Z " /><path fill="rgb(0,0,0)" stroke="rgb(0,0,0)" stroke-width="1" opacity="0.2980392156862745" d="M 259.5 114 L 263 116.5 L 261.5 117 L 259.5 114 Z " /><path fill="rgb(0,0,0)" stroke="rgb(0,0,0)" stroke-width="1" opacity="0.2980392156862745" d="M 240.5 117 L 241 503.5 L 240 503.5 L 240.5 117 Z " /><path fill="rgb(0,0,0)" stroke="rgb(0,0,0)" stroke-width="1" opacity="0.2980392156862745" d="M 271.5 117 L 272 503.5 L 271 503.5 L 271.5 117 Z " /><path fill="rgb(0,0,0)" stroke="rgb(0,0,0)" stroke-width="1" opacity="0.2980392156862745" d="M 25.5 503 L 26.5 504 L 239 504.5 L 26.5 505 L 25.5 503 Z " /><path fill="rgb(0,0,0)" stroke="rgb(0,0,0)" stroke-width="1" opacity="0.2980392156862745" d="M 486.5 503 L 485.5 505 L 273 504.5 L 485.5 504 L 486.5 503 Z " /><path fill="rgb(12,12,12)" stroke="rgb(12,12,12)" stroke-width="1" opacity="1" d="M 146 12 L 192 12 L 192 45.5 L 194.5 48 L 237 48 L 249 113 L 17.5 113 Q 16.3 112.8 17 106.5 L 21 90.5 L 21 85.5 L 25 69.5 L 28 49.5 L 29.5 48 L 143.5 48 L 146 47 L 146 12 Z " /><path fill="rgb(12,12,12)" stroke="rgb(12,12,12)" stroke-width="1" opacity="1" d="M 393.5 12 L 439 12 L 439 46.5 L 440.5 47 L 441.5 48 L 482.5 48 L 484 49.5 L 486 64.5 L 491 85.5 L 491 90.5 L 495 106.5 L 495 113 L 263.5 113 L 263 109.5 L 275 48 L 389.5 48 L 392 47 L 392 13.5 L 393.5 12 Z " /><path fill="rgb(12,12,12)" stroke="rgb(12,12,12)" stroke-width="1" opacity="1" d="M 28.5 117 L 29 500.5 L 28 500.5 L 28.5 117 Z " /><path fill="rgb(12,12,12)" stroke="rgb(12,12,12)" stroke-width="1" opacity="1" d="M 120.5 126 L 121.5 128 L 120.5 126 Z " /><path fill="rgb(12,12,12)" stroke="rgb(12,12,12)" stroke-width="1" opacity="1" d="M 209.5 127 L 210.5 129 L 209.5 127 Z " /><path fill="rgb(12,12,12)" stroke="rgb(12,12,12)" stroke-width="1" opacity="1" d="M 60.5 129 L 117.5 129 L 121 132.5 L 122 137.5 L 121 140 L 57.5 140 L 56 138.5 Q 55 132 58.5 130 L 60.5 129 Z " /><path fill="rgb(12,12,12)" stroke="rgb(12,12,12)" stroke-width="1" opacity="1" d="M 148.5 129 L 204.5 129 L 209 132.5 L 210 136.5 L 209 140 L 145.5 140 L 144 138.5 Q 143 132 146.5 130 L 148.5 129 Z " /><path fill="rgb(12,12,12)" stroke="rgb(12,12,12)" stroke-width="1" opacity="1" d="M 307.5 129 L 363.5 129 L 368 132.5 Q 369.5 138.5 366.5 140 L 303.5 140 L 303 137.5 L 302 135.5 L 305.5 130 L 307.5 129 Z " /><path fill="rgb(12,12,12)" stroke="rgb(12,12,12)" stroke-width="1" opacity="1" d="M 394.5 129 L 451.5 129 L 455 131.5 L 456 138.5 L 454.5 140 L 391 140 L 390 134.5 L 394.5 129 Z " /><path fill="rgb(12,12,12)" stroke="rgb(12,12,12)" stroke-width="1" opacity="1" d="M 372.5 134 L 373 136.5 L 372 136.5 L 372.5 134 Z " /><path fill="rgb(12,12,12)" stroke="rgb(12,12,12)" stroke-width="1" opacity="1" d="M 54.5 143 L 55 207.5 L 54 207.5 L 54.5 143 Z " /><path fill="rgb(12,12,12)" stroke="rgb(12,12,12)" stroke-width="1" opacity="1" d="M 145.5 144 L 146 205.5 L 145 205.5 L 145.5 144 Z " /><path fill="rgb(12,12,12)" stroke="rgb(12,12,12)" stroke-width="1" opacity="1" d="M 366.5 144 L 367 205.5 L 366 205.5 L 366.5 144 Z " /><path fill="rgb(12,12,12)" stroke="rgb(12,12,12)" stroke-width="1" opacity="1" d="M 457.5 208 L 456.5 210 L 457.5 208 Z " /><path fill="rgb(12,12,12)" stroke="rgb(12,12,12)" stroke-width="1" opacity="1" d="M 121.5 232 L 123.5 235 L 121.5 232 Z " /><path fill="rgb(12,12,12)" stroke="rgb(12,12,12)" stroke-width="1" opacity="1" d="M 368.5 232 L 369.5 234 L 368.5 232 Z " /><path fill="rgb(12,12,12)" stroke="rgb(12,12,12)" stroke-width="1" opacity="1" d="M 61.5 234 L 116.5 234 L 121 237.5 L 122 243.5 L 120.5 245 L 57.5 245 Q 54.8 243.8 56 238.5 L 61.5 234 Z " /><path fill="rgb(12,12,12)" stroke="rgb(12,12,12)" stroke-width="1" opacity="1" d="M 148.5 234 L 204.5 234 L 209 237.5 L 210 241.5 L 209 245 L 144.5 245 Q 143.3 244.8 144 238.5 L 146.5 235 L 148.5 234 Z " /><path fill="rgb(12,12,12)" stroke="rgb(12,12,12)" stroke-width="1" opacity="1" d="M 307.5 234 L 363.5 234 L 367 236.5 L 368 245 L 303.5 245 L 303 242.5 L 302 240.5 L 305.5 235 L 307.5 234 Z " /><path fill="rgb(12,12,12)" stroke="rgb(12,12,12)" stroke-width="1" opacity="1" d="M 395.5 234 L 450.5 234 L 456 238.5 Q 457.3 243.8 454.5 245 L 391.5 245 L 390 243.5 Q 389.1 236.6 393.5 235 L 395.5 234 Z " /><path fill="rgb(12,12,12)" stroke="rgb(12,12,12)" stroke-width="1" opacity="1" d="M 372.5 240 L 373 242.5 L 372 242.5 L 372.5 240 Z " /><path fill="rgb(12,12,12)" stroke="rgb(12,12,12)" stroke-width="1" opacity="1" d="M 54.5 248 L 55 312.5 L 54 312.5 L 54.5 248 Z " /><path fill="rgb(12,12,12)" stroke="rgb(12,12,12)" stroke-width="1" opacity="1" d="M 145.5 249 L 146 310.5 L 145 310.5 L 145.5 249 Z " /><path fill="rgb(12,12,12)" stroke="rgb(12,12,12)" stroke-width="1" opacity="1" d="M 366.5 249 L 367 310.5 L 366 310.5 L 366.5 249 Z " /><path fill="rgb(12,12,12)" stroke="rgb(12,12,12)" stroke-width="1" opacity="1" d="M 142.5 313 L 143.5 314 L 210 314.5 L 143.5 315 L 142.5 313 Z " /><path fill="rgb(12,12,12)" stroke="rgb(12,12,12)" stroke-width="1" opacity="1" d="M 56.5 314 L 122 314.5 L 56.5 315 L 56.5 314 Z " /><path fill="rgb(12,12,12)" stroke="rgb(12,12,12)" stroke-width="1" opacity="1" d="M 61.5 335 L 117 335.5 L 61.5 336 L 61.5 335 Z " /><path fill="rgb(12,12,12)" stroke="rgb(12,12,12)" stroke-width="1" opacity="1" d="M 149.5 335 L 204 335.5 L 149.5 336 L 149.5 335 Z " /><path fill="rgb(12,12,12)" stroke="rgb(12,12,12)" stroke-width="1" opacity="1" d="M 56.5 337 L 54.5 340 L 56.5 337 Z " /><path fill="rgb(12,12,12)" stroke="rgb(12,12,12)" stroke-width="1" opacity="1" d="M 302.5 337 L 301.5 339 L 302.5 337 Z " /><path fill="rgb(12,12,12)" stroke="rgb(12,12,12)" stroke-width="1" opacity="1" d="M 122.5 338 L 123.5 340 L 122.5 338 Z " /><path fill="rgb(12,12,12)" stroke="rgb(12,12,12)" stroke-width="1" opacity="1" d="M 61.5 339 L 116.5 339 L 121 342.5 L 122 348.5 L 120.5 350 L 57.5 350 Q 55 349 56 344.5 L 59.5 340 L 61.5 339 Z " /><path fill="rgb(12,12,12)" stroke="rgb(12,12,12)" stroke-width="1" opacity="1" d="M 149.5 339 L 203.5 339 L 208 341.5 L 210 346.5 L 209 350 L 144.5 350 Q 143.3 349.8 144 343.5 L 145 341 L 149.5 339 Z " /><path fill="rgb(12,12,12)" stroke="rgb(12,12,12)" stroke-width="1" opacity="1" d="M 308.5 339 L 362.5 339 L 367 341 Q 368.9 343.8 368 350 L 303.5 350 L 303 347.5 L 302 345.5 L 305.5 340 L 308.5 339 Z " /><path fill="rgb(12,12,12)" stroke="rgb(12,12,12)" stroke-width="1" opacity="1" d="M 395.5 339 L 450.5 339 L 455 342.5 L 456 348.5 L 454.5 350 L 391.5 350 Q 389 349 390 344.5 L 393.5 340 L 395.5 339 Z " /><path fill="rgb(12,12,12)" stroke="rgb(12,12,12)" stroke-width="1" opacity="1" d="M 372.5 345 L 373 347.5 L 372 347.5 L 372.5 345 Z " /><path fill="rgb(12,12,12)" stroke="rgb(12,12,12)" stroke-width="1" opacity="1" d="M 54.5 353 L 55 417.5 L 54 417.5 L 54.5 353 Z " /><path fill="rgb(12,12,12)" stroke="rgb(12,12,12)" stroke-width="1" opacity="1" d="M 58.5 354 L 120 354.5 L 58.5 355 L 58.5 354 Z " /><path fill="rgb(12,12,12)" stroke="rgb(12,12,12)" stroke-width="1" opacity="1" d="M 145 354 L 208 354.5 L 146 355 L 146 416 L 207.5 416 L 207.5 417 L 146.5 417 L 145 415.5 L 145 354 Z " /><path fill="rgb(12,12,12)" stroke="rgb(12,12,12)" stroke-width="1" opacity="1" d="M 304.5 354 L 367 354 L 367 415.5 L 365.5 417 L 304.5 417 L 304.5 416 L 366 416 L 366 355 L 304.5 355 L 304.5 354 Z " /><path fill="rgb(12,12,12)" stroke="rgb(12,12,12)" stroke-width="1" opacity="1" d="M 392.5 354 L 454 354.5 L 392.5 355 L 392.5 354 Z " /><path fill="rgb(12,12,12)" stroke="rgb(12,12,12)" stroke-width="1" opacity="1" d="M 58.5 416 L 120 416.5 L 58.5 417 L 58.5 416 Z " /><path fill="rgb(12,12,12)" stroke="rgb(12,12,12)" stroke-width="1" opacity="1" d="M 392.5 416 L 454 416.5 L 392.5 417 L 392.5 416 Z " /><path fill="rgb(12,12,12)" stroke="rgb(12,12,12)" stroke-width="1" opacity="1" d="M 130.5 443 L 146.5 445 Q 159.4 450.1 167 460.5 L 171 467.5 L 174 478.5 L 174 500 L 92.5 500 L 92 499.5 L 92 475.5 Q 95.6 460.1 106.5 452 L 116.5 446 L 130.5 443 Z " /><path fill="rgb(12,12,12)" stroke="rgb(12,12,12)" stroke-width="1" opacity="1" d="M 376.5 443 L 388.5 444 L 395.5 446 Q 405.6 450.4 412 458.5 Q 417.7 465.3 420 475.5 L 420 500 L 338.5 500 L 338 499.5 L 338 478.5 Q 341.2 459.7 354.5 451 L 363.5 446 L 376.5 443 Z " /><path fill="rgb(12,12,12)" stroke="rgb(12,12,12)" stroke-width="1" opacity="1" d="M 161.5 449 L 163.5 452 L 161.5 449 Z " /><path fill="rgb(12,12,12)" stroke="rgb(12,12,12)" stroke-width="1" opacity="1" d="M 165.5 453 L 167.5 456 L 165.5 453 Z " /><path fill="rgb(12,12,12)" stroke="rgb(12,12,12)" stroke-width="1" opacity="1" d="M 177.5 478 L 178 480.5 L 177 480.5 L 177.5 478 Z " /><path fill="rgb(12,12,12)" stroke="rgb(12,12,12)" stroke-width="1" opacity="1" d="M 276.5 500 L 333 500.5 L 276.5 501 L 276.5 500 Z " /><path fill="rgb(12,12,12)" stroke="rgb(12,12,12)" stroke-width="1" opacity="1" d="M 425.5 500 L 483 500.5 L 425.5 501 L 425.5 500 Z " /><path fill="rgb(0,0,0)" stroke="rgb(0,0,0)" stroke-width="1" opacity="0" d="M 0 0 L 512 0 L 512 512 L 0 512 L 0 0 Z M 147 7 L 145 8 L 142 11 L 142 43 L 29 43 L 27 44 L 23 52 L 12 114 L 16 117 L 25 117 L 25 504 L 27 505 L 239 505 L 240 504 L 241 504 L 241 117 L 251 117 L 253 115 L 253 107 L 242 54 L 242 49 L 238 43 L 197 43 L 197 12 L 192 7 L 147 7 Z M 394 7 L 391 8 L 388 12 L 388 43 L 275 43 L 272 44 L 270 49 L 269 59 L 259 107 Q 257 115 262 117 L 271 117 L 271 118 L 271 504 L 274 505 L 486 505 L 487 504 L 487 117 L 497 117 L 500 114 L 499 104 L 487 46 L 484 43 L 443 43 L 443 11 L 439 7 L 394 7 Z " /><path fill="rgb(104,118,119)" stroke="rgb(104,118,119)" stroke-width="1" opacity="1" d="M 144.5 126 L 141.5 130 L 144.5 126 Z " /><path fill="rgb(104,118,119)" stroke="rgb(104,118,119)" stroke-width="1" opacity="1" d="M 55.5 127 L 54.5 129 L 55.5 127 Z " /><path fill="rgb(104,118,119)" stroke="rgb(104,118,119)" stroke-width="1" opacity="1" d="M 213.5 133 L 214 138.5 L 213 138.5 L 213.5 133 Z " /><path fill="rgb(104,118,119)" stroke="rgb(104,118,119)" stroke-width="1" opacity="1" d="M 139.5 134 L 140 137.5 L 139 137.5 L 139.5 134 Z " /><path fill="rgb(104,118,119)" stroke="rgb(104,118,119)" stroke-width="1" opacity="1" d="M 123.5 143 L 124 208.5 L 122.5 210 L 55.5 210 L 54.5 208 L 55.5 209 L 123 209 L 123.5 143 Z " /><path fill="rgb(104,118,119)" stroke="rgb(104,118,119)" stroke-width="1" opacity="1" d="M 207.5 145 L 208 204.5 L 207 204.5 L 207.5 145 Z " /><path fill="rgb(104,118,119)" stroke="rgb(104,118,119)" stroke-width="1" opacity="1" d="M 304.5 145 L 305 204.5 L 304 204.5 L 304.5 145 Z " /><path fill="rgb(104,118,119)" stroke="rgb(104,118,119)" stroke-width="1" opacity="1" d="M 143.5 209 L 210 209.5 L 143.5 210 L 143.5 209 Z " /><path fill="rgb(104,118,119)" stroke="rgb(104,118,119)" stroke-width="1" opacity="1" d="M 208.5 231 L 211.5 235 L 208.5 231 Z " /><path fill="rgb(104,118,119)" stroke="rgb(104,118,119)" stroke-width="1" opacity="1" d="M 143.5 232 L 141.5 235 L 143.5 232 Z " /><path fill="rgb(104,118,119)" stroke="rgb(104,118,119)" stroke-width="1" opacity="1" d="M 213.5 238 L 214 243.5 L 213 243.5 L 213.5 238 Z " /><path fill="rgb(104,118,119)" stroke="rgb(104,118,119)" stroke-width="1" opacity="1" d="M 139.5 239 L 140 242.5 L 139 242.5 L 139.5 239 Z " /><path fill="rgb(104,118,119)" stroke="rgb(104,118,119)" stroke-width="1" opacity="1" d="M 123.5 248 L 124 313.5 L 122 314.5 L 123 313.5 L 123.5 248 Z " /><path fill="rgb(104,118,119)" stroke="rgb(104,118,119)" stroke-width="1" opacity="1" d="M 58.5 249 L 119 249.5 L 58.5 250 L 58.5 249 Z " /><path fill="rgb(104,118,119)" stroke="rgb(104,118,119)" stroke-width="1" opacity="1" d="M 146.5 249 L 206.5 249 L 208 250.5 L 207.5 310 L 207 250 L 146.5 250 L 146.5 249 Z " /><path fill="rgb(104,118,119)" stroke="rgb(104,118,119)" stroke-width="1" opacity="1" d="M 305.5 249 L 366 249.5 L 305 250 L 304.5 310 L 304 250.5 L 305.5 249 Z " /><path fill="rgb(104,118,119)" stroke="rgb(104,118,119)" stroke-width="1" opacity="1" d="M 392.5 249 L 454 249.5 L 392.5 250 L 392.5 249 Z " /><path fill="rgb(104,118,119)" stroke="rgb(104,118,119)" stroke-width="1" opacity="1" d="M 54.5 313 L 55.5 315 L 54.5 313 Z " /><path fill="rgb(104,118,119)" stroke="rgb(104,118,119)" stroke-width="1" opacity="1" d="M 143.5 337 L 142.5 339 L 143.5 337 Z " /><path fill="rgb(104,118,119)" stroke="rgb(104,118,119)" stroke-width="1" opacity="1" d="M 209.5 337 L 211.5 340 L 209.5 337 Z " /><path fill="rgb(104,118,119)" stroke="rgb(104,118,119)" stroke-width="1" opacity="1" d="M 213.5 343 L 214 345.5 L 213 345.5 L 213.5 343 Z " /><path fill="rgb(104,118,119)" stroke="rgb(104,118,119)" stroke-width="1" opacity="1" d="M 139.5 344 L 140 348.5 L 139 348.5 L 139.5 344 Z " /><path fill="rgb(104,118,119)" stroke="rgb(104,118,119)" stroke-width="1" opacity="1" d="M 123.5 354 L 124 418.5 L 123 418.5 L 123.5 354 Z " /><path fill="rgb(104,118,119)" stroke="rgb(104,118,119)" stroke-width="1" opacity="1" d="M 207.5 355 L 208 415.5 L 207 415.5 L 207.5 355 Z " /><path fill="rgb(104,118,119)" stroke="rgb(104,118,119)" stroke-width="1" opacity="1" d="M 304.5 355 L 305 415.5 L 304 415.5 L 304.5 355 Z " /><path fill="rgb(104,118,119)" stroke="rgb(104,118,119)" stroke-width="1" opacity="1" d="M 126.5 439 L 131 439.5 L 126.5 440 L 126.5 439 Z " /><path fill="rgb(104,118,119)" stroke="rgb(104,118,119)" stroke-width="1" opacity="1" d="M 134.5 439 L 139 439.5 L 134.5 440 L 134.5 439 Z " /><path fill="rgb(104,118,119)" stroke="rgb(104,118,119)" stroke-width="1" opacity="1" d="M 156.5 445 L 157.5 447 L 156.5 445 Z " /><path fill="rgb(104,118,119)" stroke="rgb(104,118,119)" stroke-width="1" opacity="1" d="M 107.5 446 L 106.5 448 L 107.5 446 Z " /><path fill="rgb(104,118,119)" stroke="rgb(104,118,119)" stroke-width="1" opacity="1" d="M 159.5 447 L 160.5 449 L 159.5 447 Z " /><path fill="rgb(104,118,119)" stroke="rgb(104,118,119)" stroke-width="1" opacity="1" d="M 103.5 449 L 97.5 456 L 103.5 449 Z " /><path fill="rgb(104,118,119)" stroke="rgb(104,118,119)" stroke-width="1" opacity="1" d="M 168.5 456 L 169.5 458 L 168.5 456 Z " /><path fill="rgb(104,118,119)" stroke="rgb(104,118,119)" stroke-width="1" opacity="1" d="M 95.5 458 L 94.5 460 L 95.5 458 Z " /><path fill="rgb(104,118,119)" stroke="rgb(104,118,119)" stroke-width="1" opacity="1" d="M 87.5 479 L 88 499.5 L 86.5 501 L 29.5 501 L 29.5 500 L 87 500 L 87.5 479 Z " /><path fill="rgb(104,118,119)" stroke="rgb(104,118,119)" stroke-width="1" opacity="1" d="M 178.5 500 L 237 500.5 L 178.5 501 L 178.5 500 Z " /><path fill="rgb(67,150,178)" stroke="rgb(67,150,178)" stroke-width="1" opacity="1" d="M 58.5 144 L 118.5 144 L 120 145.5 L 119.5 205 L 119 145 L 58.5 145 L 58.5 144 Z " /><path fill="rgb(67,150,178)" stroke="rgb(67,150,178)" stroke-width="1" opacity="1" d="M 146.5 144 L 207 144.5 L 146.5 145 L 146.5 144 Z " /><path fill="rgb(67,150,178)" stroke="rgb(67,150,178)" stroke-width="1" opacity="1" d="M 305.5 144 L 366 144.5 L 305.5 145 L 305.5 144 Z " /><path fill="rgb(67,150,178)" stroke="rgb(67,150,178)" stroke-width="1" opacity="1" d="M 393.5 144 L 454 144.5 L 393 145 L 392.5 205 L 392 145.5 L 393.5 144 Z " /><path fill="rgb(67,150,178)" stroke="rgb(67,150,178)" stroke-width="1" opacity="1" d="M 119.5 250 L 120 310.5 L 119 310.5 L 119.5 250 Z " /><path fill="rgb(67,150,178)" stroke="rgb(67,150,178)" stroke-width="1" opacity="1" d="M 392.5 250 L 393 310.5 L 392 310.5 L 392.5 250 Z " /><path fill="rgb(67,150,178)" stroke="rgb(67,150,178)" stroke-width="1" opacity="1" d="M 119.5 355 L 120 415.5 L 119 415.5 L 119.5 355 Z " /><path fill="rgb(67,150,178)" stroke="rgb(67,150,178)" stroke-width="1" opacity="1" d="M 392.5 355 L 393 415.5 L 392 415.5 L 392.5 355 Z " /><path fill="rgb(68,151,179)" stroke="rgb(68,151,179)" stroke-width="1" opacity="1" d="M 236.5 117 L 237 499.5 L 236 499.5 L 236.5 117 Z " /><path fill="rgb(68,151,179)" stroke="rgb(68,151,179)" stroke-width="1" opacity="1" d="M 63.5 124 L 115 124.5 L 63.5 125 L 63.5 124 Z " /><path fill="rgb(68,151,179)" stroke="rgb(68,151,179)" stroke-width="1" opacity="1" d="M 150.5 124 L 203 124.5 L 150.5 125 L 150.5 124 Z " /><path fill="rgb(68,151,179)" stroke="rgb(68,151,179)" stroke-width="1" opacity="1" d="M 122.5 127 L 123.5 129 L 122.5 127 Z " /><path fill="rgb(68,151,179)" stroke="rgb(68,151,179)" stroke-width="1" opacity="1" d="M 211.5 143 L 212 207.5 L 211 207.5 L 211.5 143 Z " /><path fill="rgb(68,151,179)" stroke="rgb(68,151,179)" stroke-width="1" opacity="1" d="M 59.5 205 L 119 205.5 L 59.5 206 L 59.5 205 Z " /><path fill="rgb(68,151,179)" stroke="rgb(68,151,179)" stroke-width="1" opacity="1" d="M 146.5 205 L 207 205.5 L 146.5 206 L 146.5 205 Z " /><path fill="rgb(68,151,179)" stroke="rgb(68,151,179)" stroke-width="1" opacity="1" d="M 305.5 205 L 366 205.5 L 305.5 206 L 305.5 205 Z " /><path fill="rgb(68,151,179)" stroke="rgb(68,151,179)" stroke-width="1" opacity="1" d="M 393.5 205 L 453 205.5 L 393.5 206 L 393.5 205 Z " /><path fill="rgb(68,151,179)" stroke="rgb(68,151,179)" stroke-width="1" opacity="1" d="M 55.5 232 L 54.5 234 L 55.5 232 Z " /><path fill="rgb(68,151,179)" stroke="rgb(68,151,179)" stroke-width="1" opacity="1" d="M 211.5 248 L 212 312.5 L 211 312.5 L 211.5 248 Z " /><path fill="rgb(68,151,179)" stroke="rgb(68,151,179)" stroke-width="1" opacity="1" d="M 211.5 354 L 212 417.5 L 211 417.5 L 211.5 354 Z " /><path fill="rgb(68,151,179)" stroke="rgb(68,151,179)" stroke-width="1" opacity="1" d="M 164.5 451 L 165.5 453 L 164.5 451 Z " /><path fill="rgb(226,231,224)" stroke="rgb(226,231,224)" stroke-width="1" opacity="1" d="M 29 117 L 236 117 L 236 500 L 178 500 L 178 475.5 Q 174.2 460.3 164.5 451 Q 156.6 443.4 144.5 440 L 125.5 439 Q 106.5 442.5 97 455.5 L 88 473.5 L 87 478.5 L 87 500 L 29.5 500 L 29 499.5 L 29 117 Z M 64 124 L 57 126 L 52 132 L 52 141 L 54 143 L 54 209 L 56 210 L 123 210 L 124 209 L 124 143 L 126 140 Q 127 132 124 129 L 120 125 L 115 124 L 64 124 Z M 151 124 L 145 126 L 139 134 Q 138 141 142 144 L 142 209 L 144 210 L 210 210 L 212 208 L 212 142 L 214 139 L 213 131 Q 210 125 203 124 L 151 124 Z M 60 230 L 56 232 L 51 242 L 54 248 L 54 314 L 56 315 L 123 315 L 124 314 L 124 248 L 126 245 L 125 236 L 119 230 L 60 230 Z M 147 230 L 145 231 L 139 239 Q 138 246 142 249 L 142 315 L 211 315 L 212 313 L 212 248 L 214 244 Q 215 237 212 235 L 207 230 L 147 230 Z M 60 335 L 58 336 Q 52 339 51 347 L 54 354 L 54 419 L 56 420 L 123 420 L 124 419 L 124 353 L 126 351 Q 127 344 125 341 L 119 335 L 60 335 Z M 148 335 L 144 337 L 139 345 Q 138 351 142 354 L 142 420 L 211 420 L 212 418 L 212 353 L 214 350 Q 215 343 212 340 L 206 335 L 148 335 Z " /><path fill="rgb(84,188,223)" stroke="rgb(84,188,223)" stroke-width="1" opacity="1" d="M 58.5 145 L 59 204.5 L 58 204.5 L 58.5 145 Z " /><path fill="rgb(84,188,223)" stroke="rgb(84,188,223)" stroke-width="1" opacity="1" d="M 453.5 145 L 454 204.5 L 453 204.5 L 453.5 145 Z " /><path fill="rgb(84,188,223)" stroke="rgb(84,188,223)" stroke-width="1" opacity="1" d="M 58.5 250 L 59 310 L 119 310.5 L 59.5 311 L 58 309.5 L 58.5 250 Z " /><path fill="rgb(84,188,223)" stroke="rgb(84,188,223)" stroke-width="1" opacity="1" d="M 453.5 250 L 454 309.5 L 452.5 311 L 393.5 311 L 393.5 310 L 453 310 L 453.5 250 Z " /><path fill="rgb(84,188,223)" stroke="rgb(84,188,223)" stroke-width="1" opacity="1" d="M 146.5 310 L 207 310.5 L 146.5 311 L 146.5 310 Z " /><path fill="rgb(84,188,223)" stroke="rgb(84,188,223)" stroke-width="1" opacity="1" d="M 305.5 310 L 366 310.5 L 305.5 311 L 305.5 310 Z " /><path fill="rgb(84,188,223)" stroke="rgb(84,188,223)" stroke-width="1" opacity="1" d="M 58.5 355 L 59 415.5 L 58 415.5 L 58.5 355 Z " /><path fill="rgb(84,188,223)" stroke="rgb(84,188,223)" stroke-width="1" opacity="1" d="M 453.5 355 L 454 415.5 L 453 415.5 L 453.5 355 Z " /><path fill="rgb(85,189,224)" stroke="rgb(85,189,224)" stroke-width="1" opacity="1" d="M 59 145 L 119 145 L 119 205 L 59 205 L 59 145 Z " /><path fill="rgb(85,189,224)" stroke="rgb(85,189,224)" stroke-width="1" opacity="1" d="M 146 145 L 207 145 L 207 205 L 146 205 L 146 145 Z " /><path fill="rgb(85,189,224)" stroke="rgb(85,189,224)" stroke-width="1" opacity="1" d="M 305 145 L 366 145 L 366 205 L 305 205 L 305 145 Z " /><path fill="rgb(85,189,224)" stroke="rgb(85,189,224)" stroke-width="1" opacity="1" d="M 393 145 L 453 145 L 453 205 L 393 205 L 393 145 Z " /><path fill="rgb(85,189,224)" stroke="rgb(85,189,224)" stroke-width="1" opacity="1" d="M 59 250 L 119 250 L 119 310 L 59 310 L 59 250 Z " /><path fill="rgb(85,189,224)" stroke="rgb(85,189,224)" stroke-width="1" opacity="1" d="M 146 250 L 207 250 L 207 310 L 146 310 L 146 250 Z " /><path fill="rgb(85,189,224)" stroke="rgb(85,189,224)" stroke-width="1" opacity="1" d="M 305 250 L 366 250 L 366 310 L 305 310 L 305 250 Z " /><path fill="rgb(85,189,224)" stroke="rgb(85,189,224)" stroke-width="1" opacity="1" d="M 393 250 L 453 250 L 453 310 L 393 310 L 393 250 Z " /><path fill="rgb(85,189,224)" stroke="rgb(85,189,224)" stroke-width="1" opacity="1" d="M 59 355 L 119 355 L 119 416 L 59 416 L 59 355 Z " /><path fill="rgb(85,189,224)" stroke="rgb(85,189,224)" stroke-width="1" opacity="1" d="M 146 355 L 207 355 L 207 416 L 146 416 L 146 355 Z " /><path fill="rgb(85,189,224)" stroke="rgb(85,189,224)" stroke-width="1" opacity="1" d="M 305 355 L 366 355 L 366 416 L 305 416 L 305 355 Z " /><path fill="rgb(85,189,224)" stroke="rgb(85,189,224)" stroke-width="1" opacity="1" d="M 393 355 L 453 355 L 453 416 L 393 416 L 393 355 Z " /></svg>