<svg width="512" height="512" version="1.1" xmlns="http://www.w3.org/2000/svg" desc="Created with imagetracer.js version 1.2.6" ><path fill="rgb(52,187,242)" stroke="rgb(52,187,242)" stroke-width="1" opacity="0.9725490196078431" d="M 218 257 L 233 257.5 L 218 270.5 L 218.5 279 L 236 265 L 236.5 257 L 237 264.5 L 237 266.5 L 236 281 L 223.5 281 L 222.5 280 L 217 281 L 218 257 Z M 229 274 L 227 277 L 230 275 L 229 274 Z " /><path fill="rgb(52,187,242)" stroke="rgb(52,187,242)" stroke-width="1" opacity="0.9725490196078431" d="M 247 257 L 262 257.5 L 247.5 271 L 247 257 Z " /><path fill="rgb(52,187,242)" stroke="rgb(52,187,242)" stroke-width="1" opacity="0.9725490196078431" d="M 265.5 257 L 266 281 L 252.5 281 L 251.5 280 L 247.5 281 L 254.5 273 L 265 265 L 265.5 257 Z M 265 268 L 263 270 L 265 270 L 265 268 Z M 256 276 L 255 278 L 257 277 L 256 276 Z " /><path fill="rgb(52,187,242)" stroke="rgb(52,187,242)" stroke-width="1" opacity="0.9725490196078431" d="M 276 257 L 291 257.5 L 276.5 271 L 276 257 Z " /><path fill="rgb(52,187,242)" stroke="rgb(52,187,242)" stroke-width="1" opacity="0.9725490196078431" d="M 294.5 264 L 295 267.5 L 295 269.5 L 295 281 L 281.5 281 L 279.5 281 L 276 280.5 L 294.5 264 Z " /><path fill="rgb(52,187,242)" stroke="rgb(52,187,242)" stroke-width="1" opacity="0.9725490196078431" d="M 138 266 L 157 266 L 157 289.5 L 155.5 291 L 138 291 L 142.5 285 L 156 273.5 L 156 267 L 152.5 267 L 138.5 280 L 138 266 Z " /><path fill="rgb(52,187,242)" stroke="rgb(52,187,242)" stroke-width="1" opacity="0.9725490196078431" d="M 167 266 L 186 266 L 186 289.5 L 184.5 291 L 167 291 L 171.5 285 L 185 273.5 L 185 267 L 181.5 267 L 167.5 280 L 167 266 Z M 182 280 L 181 282 L 183 281 L 182 280 Z M 174 287 L 172 290 L 175 288 L 174 287 Z " /><path fill="rgb(52,187,242)" stroke="rgb(52,187,242)" stroke-width="1" opacity="0.9725490196078431" d="M 329 266 L 348 266 L 348 274.5 L 348 276.5 L 347 291 L 329.5 291 L 328 289.5 L 329 266 Z M 344 267 L 329 280 L 330 289 L 347 274 L 347 267 L 344 267 Z M 344 280 L 342 283 L 345 281 L 344 280 Z " /><path fill="rgb(52,187,242)" stroke="rgb(52,187,242)" stroke-width="1" opacity="0.9725490196078431" d="M 358 266 L 377 266 L 377 291 L 358.5 291 L 358 289.5 L 376 273.5 L 376 267 L 372.5 267 L 358.5 280 L 358 266 Z M 372 281 L 370 284 L 373 282 L 372 281 Z M 365 287 L 363 290 L 366 288 L 365 287 Z " /><path fill="rgb(52,187,242)" stroke="rgb(52,187,242)" stroke-width="1" opacity="0.9725490196078431" d="M 232.5 292 Q 236.3 291.3 237 293.5 Q 238.8 299.8 236 301.5 L 237 305.5 L 236 306.5 L 236 317 L 223.5 317 L 221.5 316 L 218.5 317 L 217 315.5 L 217 305.5 L 218 304.5 L 218 293 L 231.5 293 L 232.5 292 Z M 234 293 L 218 307 L 219 315 L 236 300 L 236 293 L 234 293 Z M 231 308 L 230 310 L 232 309 L 231 308 Z " /><path fill="rgb(52,187,242)" stroke="rgb(52,187,242)" stroke-width="1" opacity="0.9725490196078431" d="M 261.5 292 Q 266 291.5 266 292.5 L 266 317 L 252.5 317 L 251.5 316 L 247 317 L 248.5 314 L 265 299.5 L 265 293 L 262.5 293 L 247.5 306 L 247 293 L 260.5 293 L 261.5 292 Z " /><path fill="rgb(52,187,242)" stroke="rgb(52,187,242)" stroke-width="1" opacity="0.9725490196078431" d="M 291.5 292 L 295 292.5 L 291.5 293 L 276.5 306 L 276 293 L 290.5 293 L 291.5 292 Z " /><path fill="rgb(52,187,242)" stroke="rgb(52,187,242)" stroke-width="1" opacity="0.9725490196078431" d="M 294.5 300 L 295 303.5 L 295 305.5 L 295 317 L 281.5 317 L 279.5 317 Q 275.1 318.5 276 315.5 L 294.5 300 Z " /><path fill="rgb(52,187,242)" stroke="rgb(52,187,242)" stroke-width="1" opacity="0.9725490196078431" d="M 138 301 L 153 301.5 L 138.5 314 L 138 301 Z " /><path fill="rgb(52,187,242)" stroke="rgb(52,187,242)" stroke-width="1" opacity="0.9725490196078431" d="M 156.5 301 L 157 325 L 138.5 325 L 138 323.5 L 156 307.5 L 156.5 301 Z " /><path fill="rgb(52,187,242)" stroke="rgb(52,187,242)" stroke-width="1" opacity="0.9725490196078431" d="M 167 301 L 182 301.5 L 167.5 314 L 167 301 Z " /><path fill="rgb(52,187,242)" stroke="rgb(52,187,242)" stroke-width="1" opacity="0.9725490196078431" d="M 185.5 301 L 186 325 L 167.5 325 L 167 323.5 L 185 307.5 L 185.5 301 Z M 181 315 L 180 317 L 182 316 L 181 315 Z " /><path fill="rgb(52,187,242)" stroke="rgb(52,187,242)" stroke-width="1" opacity="0.9725490196078431" d="M 329 301 L 344 301.5 L 329 314.5 L 329.5 323 L 347 307.5 L 347.5 301 L 348 308.5 L 348 310.5 L 347 325 L 329.5 325 L 328 323.5 L 329 301 Z " /><path fill="rgb(52,187,242)" stroke="rgb(52,187,242)" stroke-width="1" opacity="0.9725490196078431" d="M 358 301 L 373 301.5 L 358.5 314 L 358 301 Z " /><path fill="rgb(52,187,242)" stroke="rgb(52,187,242)" stroke-width="1" opacity="0.9725490196078431" d="M 376.5 301 L 377 325 L 358.5 325 L 358 323 L 359.5 323 L 376 307.5 L 376.5 301 Z M 370 317 L 369 319 L 371 318 L 370 317 Z " /><path fill="rgb(52,187,242)" stroke="rgb(52,187,242)" stroke-width="1" opacity="0.9725490196078431" d="M 230 329 L 255 329.5 Q 250.4 328.9 249 331.5 L 230.5 364 L 230 329 Z " /><path fill="rgb(52,187,242)" stroke="rgb(52,187,242)" stroke-width="1" opacity="0.9725490196078431" d="M 258 329 L 283 329.5 Q 278.4 328.9 277 331.5 L 258.5 364 L 258 329 Z " /><path fill="rgb(52,187,242)" stroke="rgb(52,187,242)" stroke-width="1" opacity="0.9725490196078431" d="M 138 335 L 157 335 L 157 358.5 L 155.5 360 L 138 360 L 144.5 352 L 156 342.5 L 156 336 L 152.5 336 L 138.5 348 L 138 335 Z M 155 347 L 154 349 L 156 348 L 155 347 Z M 148 353 L 146 356 L 149 354 L 148 353 Z " /><path fill="rgb(52,187,242)" stroke="rgb(52,187,242)" stroke-width="1" opacity="0.9725490196078431" d="M 167 335 L 186 335 L 186 358.5 L 184.5 360 L 167 360 L 172.5 353 L 185 342.5 L 185 336 L 181.5 336 L 167.5 348 L 167 335 Z M 183 348 L 182 350 L 184 349 L 183 348 Z M 175 355 L 173 358 L 176 356 L 175 355 Z " /><path fill="rgb(52,187,242)" stroke="rgb(52,187,242)" stroke-width="1" opacity="0.9725490196078431" d="M 329 335 L 348 335 L 348 343.5 L 348 345.5 L 347 360 L 329.5 360 L 328 358.5 L 329 335 Z M 344 336 L 329 349 L 330 358 L 347 343 L 347 336 L 344 336 Z M 345 348 L 344 350 L 346 349 L 345 348 Z M 337 355 L 336 357 L 338 356 L 337 355 Z " /><path fill="rgb(52,187,242)" stroke="rgb(52,187,242)" stroke-width="1" opacity="0.9725490196078431" d="M 358 335 L 377 335 L 377 358.5 L 375.5 360 L 358 360 L 362.5 354 L 376 342.5 L 376 336 L 372.5 336 L 358.5 349 L 358 335 Z M 374 348 L 371 352 L 375 349 L 374 348 Z M 366 355 L 363 359 L 367 356 L 366 355 Z " /><path fill="rgb(52,187,242)" stroke="rgb(52,187,242)" stroke-width="1" opacity="0.9725490196078431" d="M 254.5 337 L 255 340.5 L 255 342.5 L 255 375 L 230 375 L 231 371.5 L 254.5 337 Z M 249 351 L 247 354 L 249 353 L 249 351 Z M 247 354 L 234 374 L 237 374 L 247 356 L 247 354 Z " /><path fill="rgb(52,187,242)" stroke="rgb(52,187,242)" stroke-width="1" opacity="0.9725490196078431" d="M 282.5 337 L 283 375 L 258.5 375 L 258 373.5 L 282.5 337 Z M 276 352 L 262 373 Q 261 375 265 374 L 276 354 L 276 352 Z " /><path fill="rgb(118,54,234)" stroke="rgb(118,54,234)" stroke-width="1" opacity="0.9921568627450981" d="M 235.5 15 L 241 15.5 L 235.5 16 L 235.5 15 Z " /><path fill="rgb(118,54,234)" stroke="rgb(118,54,234)" stroke-width="1" opacity="0.9921568627450981" d="M 274.5 15 L 277 15.5 L 274.5 16 L 274.5 15 Z " /><path fill="rgb(118,54,234)" stroke="rgb(118,54,234)" stroke-width="1" opacity="0.9921568627450981" d="M 230.5 16 L 233 16.5 L 230.5 17 L 230.5 16 Z " /><path fill="rgb(118,54,234)" stroke="rgb(118,54,234)" stroke-width="1" opacity="0.9921568627450981" d="M 283.5 16 L 287 16.5 L 283.5 17 L 283.5 16 Z " /><path fill="rgb(118,54,234)" stroke="rgb(118,54,234)" stroke-width="1" opacity="0.9921568627450981" d="M 290.5 17 L 294 17.5 L 290.5 18 L 290.5 17 Z " /><path fill="rgb(118,54,234)" stroke="rgb(118,54,234)" stroke-width="1" opacity="0.9921568627450981" d="M 212.5 18 L 217 18.5 L 212.5 19 L 212.5 18 Z " /><path fill="rgb(118,54,234)" stroke="rgb(118,54,234)" stroke-width="1" opacity="0.9921568627450981" d="M 295.5 18 L 300 18.5 L 295.5 19 L 295.5 18 Z " /><path fill="rgb(118,54,234)" stroke="rgb(118,54,234)" stroke-width="1" opacity="0.9921568627450981" d="M 203.5 20 L 206 20.5 L 203.5 21 L 203.5 20 Z " /><path fill="rgb(118,54,234)" stroke="rgb(118,54,234)" stroke-width="1" opacity="0.9921568627450981" d="M 307.5 20 L 310 20.5 L 307.5 21 L 307.5 20 Z " /><path fill="rgb(118,54,234)" stroke="rgb(118,54,234)" stroke-width="1" opacity="0.9921568627450981" d="M 312.5 21 L 315 22.5 L 313.5 22 L 312.5 21 Z " /><path fill="rgb(118,54,234)" stroke="rgb(118,54,234)" stroke-width="1" opacity="0.9921568627450981" d="M 194.5 22 L 197 22.5 L 194.5 23 L 194.5 22 Z " /><path fill="rgb(118,54,234)" stroke="rgb(118,54,234)" stroke-width="1" opacity="0.9921568627450981" d="M 187.5 24 L 186.5 26 L 175.5 29 L 175.5 28 L 187.5 24 Z " /><path fill="rgb(118,54,234)" stroke="rgb(118,54,234)" stroke-width="1" opacity="0.9921568627450981" d="M 322.5 24 L 325 24.5 L 322.5 25 L 322.5 24 Z " /><path fill="rgb(118,54,234)" stroke="rgb(118,54,234)" stroke-width="1" opacity="0.9921568627450981" d="M 336.5 28 L 340 29.5 L 337.5 30 L 336.5 28 Z " /><path fill="rgb(118,54,234)" stroke="rgb(118,54,234)" stroke-width="1" opacity="0.9921568627450981" d="M 341.5 30 L 345 31.5 L 343.5 32 L 341.5 30 Z " /><path fill="rgb(118,54,234)" stroke="rgb(118,54,234)" stroke-width="1" opacity="0.9921568627450981" d="M 346.5 32 L 350 33.5 L 348.5 34 L 346.5 32 Z " /><path fill="rgb(118,54,234)" stroke="rgb(118,54,234)" stroke-width="1" opacity="0.9921568627450981" d="M 147 40 L 149 40.5 L 147 41.5 L 147 40 Z " /><path fill="rgb(118,54,234)" stroke="rgb(118,54,234)" stroke-width="1" opacity="0.9921568627450981" d="M 145.5 41 L 144.5 43 L 141.5 44 L 141.5 43 L 145.5 41 Z " /><path fill="rgb(118,54,234)" stroke="rgb(118,54,234)" stroke-width="1" opacity="0.9921568627450981" d="M 366.5 41 L 367.5 43 L 366.5 41 Z " /><path fill="rgb(118,54,234)" stroke="rgb(118,54,234)" stroke-width="1" opacity="0.9921568627450981" d="M 369.5 43 L 374 45.5 L 372.5 45 Q 368.8 44.8 369.5 43 Z " /><path fill="rgb(118,54,234)" stroke="rgb(118,54,234)" stroke-width="1" opacity="0.9921568627450981" d="M 136.5 46 L 135.5 48 L 131.5 50 L 132.5 48 L 136.5 46 Z " /><path fill="rgb(118,54,234)" stroke="rgb(118,54,234)" stroke-width="1" opacity="0.9921568627450981" d="M 379.5 48 L 383 50.5 L 381.5 51 L 379 50 L 379.5 48 Z " /><path fill="rgb(118,54,234)" stroke="rgb(118,54,234)" stroke-width="1" opacity="0.9921568627450981" d="M 126 52 L 128 52.5 L 126 53.5 L 126 52 Z " /><path fill="rgb(118,54,234)" stroke="rgb(118,54,234)" stroke-width="1" opacity="0.9921568627450981" d="M 124.5 53 L 122.5 56 L 121 55.5 L 124.5 53 Z " /><path fill="rgb(118,54,234)" stroke="rgb(118,54,234)" stroke-width="1" opacity="0.9921568627450981" d="M 386.5 53 L 392 56.5 L 390.5 56 Q 386.5 55.5 386.5 53 Z " /><path fill="rgb(118,54,234)" stroke="rgb(118,54,234)" stroke-width="1" opacity="0.9921568627450981" d="M 393.5 57 L 399 61.5 L 397.5 61 L 393.5 57 Z " /><path fill="rgb(118,54,234)" stroke="rgb(118,54,234)" stroke-width="1" opacity="0.9921568627450981" d="M 117.5 58 L 119 58.5 L 116.5 60 L 117.5 58 Z " /><path fill="rgb(118,54,234)" stroke="rgb(118,54,234)" stroke-width="1" opacity="0.9921568627450981" d="M 111.5 62 L 108.5 66 L 111.5 62 Z " /><path fill="rgb(118,54,234)" stroke="rgb(118,54,234)" stroke-width="1" opacity="0.9921568627450981" d="M 400.5 62 L 401.5 64 L 400.5 62 Z " /><path fill="rgb(118,54,234)" stroke="rgb(118,54,234)" stroke-width="1" opacity="0.9921568627450981" d="M 106.5 66 L 105.5 68 L 106.5 66 Z " /><path fill="rgb(118,54,234)" stroke="rgb(118,54,234)" stroke-width="1" opacity="0.9921568627450981" d="M 407.5 68 L 415 74.5 L 409.5 70 L 407.5 68 Z " /><path fill="rgb(118,54,234)" stroke="rgb(118,54,234)" stroke-width="1" opacity="0.9921568627450981" d="M 102.5 69 L 99.5 73 L 102.5 69 Z " /><path fill="rgb(118,54,234)" stroke="rgb(118,54,234)" stroke-width="1" opacity="0.9921568627450981" d="M 416.5 75 L 425.5 85 L 418 79 L 416.5 75 Z " /><path fill="rgb(118,54,234)" stroke="rgb(118,54,234)" stroke-width="1" opacity="0.9921568627450981" d="M 94.5 76 L 93 78.5 L 91.5 81 L 89.5 82 L 94.5 76 Z " /><path fill="rgb(118,54,234)" stroke="rgb(118,54,234)" stroke-width="1" opacity="0.9921568627450981" d="M 86.5 84 L 84 87.5 Q 84.8 89.8 82.5 89 L 80 90.5 L 86.5 84 Z " /><path fill="rgb(118,54,234)" stroke="rgb(118,54,234)" stroke-width="1" opacity="0.9921568627450981" d="M 427.5 86 L 436 95.5 L 435 95.5 L 432.5 92 Q 430.3 92.8 431 90.5 L 427.5 86 Z " /><path fill="rgb(118,54,234)" stroke="rgb(118,54,234)" stroke-width="1" opacity="0.9921568627450981" d="M 78.5 92 L 76.5 95 L 78.5 92 Z " /><path fill="rgb(118,54,234)" stroke="rgb(118,54,234)" stroke-width="1" opacity="0.9921568627450981" d="M 75.5 96 L 70 102.5 L 69.5 104 L 69 102.5 L 75.5 96 Z " /><path fill="rgb(118,54,234)" stroke="rgb(118,54,234)" stroke-width="1" opacity="0.9921568627450981" d="M 437.5 97 L 442.5 103 Q 440.3 103.8 441 101.5 L 437.5 97 Z " /><path fill="rgb(118,54,234)" stroke="rgb(118,54,234)" stroke-width="1" opacity="0.9921568627450981" d="M 443.5 104 L 444.5 106 L 443.5 104 Z " /><path fill="rgb(118,54,234)" stroke="rgb(118,54,234)" stroke-width="1" opacity="0.9921568627450981" d="M 67.5 105 L 66.5 107 L 67.5 105 Z " /><path fill="rgb(118,54,234)" stroke="rgb(118,54,234)" stroke-width="1" opacity="0.9921568627450981" d="M 445.5 107 L 455 118.5 L 451 115.5 L 445.5 107 Z " /><path fill="rgb(118,54,234)" stroke="rgb(118,54,234)" stroke-width="1" opacity="0.9921568627450981" d="M 64.5 109 L 65 111 L 62.5 112 L 64.5 109 Z " /><path fill="rgb(118,54,234)" stroke="rgb(118,54,234)" stroke-width="1" opacity="0.9921568627450981" d="M 61.5 113 L 60.5 115 L 61.5 113 Z " /><path fill="rgb(118,54,234)" stroke="rgb(118,54,234)" stroke-width="1" opacity="0.9921568627450981" d="M 59.5 116 L 58 118.5 L 55.5 123 L 55 121.5 L 59.5 116 Z " /><path fill="rgb(118,54,234)" stroke="rgb(118,54,234)" stroke-width="1" opacity="0.9921568627450981" d="M 457.5 123 L 459 127 L 461 127.5 L 459.5 128 Q 455.8 126.2 457.5 123 Z " /><path fill="rgb(118,54,234)" stroke="rgb(118,54,234)" stroke-width="1" opacity="0.9921568627450981" d="M 53.5 126 L 51 129.5 L 46.5 137 L 47 135.5 L 51 127 L 53.5 126 Z " /><path fill="rgb(118,54,234)" stroke="rgb(118,54,234)" stroke-width="1" opacity="0.9921568627450981" d="M 462.5 131 L 463.5 133 Q 460.7 133.7 462.5 131 Z " /><path fill="rgb(118,54,234)" stroke="rgb(118,54,234)" stroke-width="1" opacity="0.9921568627450981" d="M 465.5 136 L 470 143.5 L 468 142.5 L 465 137.5 L 465.5 136 Z " /><path fill="rgb(118,54,234)" stroke="rgb(118,54,234)" stroke-width="1" opacity="0.9921568627450981" d="M 45.5 138 L 45 139.5 L 43.5 142 L 44 140.5 L 45.5 138 Z " /><path fill="rgb(118,54,234)" stroke="rgb(118,54,234)" stroke-width="1" opacity="0.9921568627450981" d="M 42.5 143 L 43 146 L 41 145.5 L 42.5 143 Z " /><path fill="rgb(118,54,234)" stroke="rgb(118,54,234)" stroke-width="1" opacity="0.9921568627450981" d="M 469.5 145 Q 471.8 144.3 471 146.5 L 471.5 148 L 469.5 145 Z " /><path fill="rgb(118,54,234)" stroke="rgb(118,54,234)" stroke-width="1" opacity="0.9921568627450981" d="M 39.5 149 L 40 150.5 L 34.5 161 L 35 159.5 L 39.5 149 Z " /><path fill="rgb(118,54,234)" stroke="rgb(118,54,234)" stroke-width="1" opacity="0.9921568627450981" d="M 473.5 152 L 474.5 154 Q 471.7 154.7 473.5 152 Z " /><path fill="rgb(118,54,234)" stroke="rgb(118,54,234)" stroke-width="1" opacity="0.9921568627450981" d="M 477.5 160 L 479 162.5 L 477 161.5 L 477.5 160 Z " /><path fill="rgb(118,54,234)" stroke="rgb(118,54,234)" stroke-width="1" opacity="0.9921568627450981" d="M 480.5 167 L 482 169.5 L 480 168.5 L 480.5 167 Z " /><path fill="rgb(118,54,234)" stroke="rgb(118,54,234)" stroke-width="1" opacity="0.9921568627450981" d="M 30.5 169 L 31 171.5 L 29 172.5 L 30.5 169 Z " /><path fill="rgb(118,54,234)" stroke="rgb(118,54,234)" stroke-width="1" opacity="0.9921568627450981" d="M 481.5 171 L 484 175.5 L 482 174.5 L 481.5 171 Z " /><path fill="rgb(118,54,234)" stroke="rgb(118,54,234)" stroke-width="1" opacity="0.9921568627450981" d="M 25.5 184 L 26 186.5 L 22.5 197 L 22 194.5 L 25.5 184 Z " /><path fill="rgb(118,54,234)" stroke="rgb(118,54,234)" stroke-width="1" opacity="0.9921568627450981" d="M 488.5 191 L 490 194.5 L 488 193.5 L 488.5 191 Z " /><path fill="rgb(118,54,234)" stroke="rgb(118,54,234)" stroke-width="1" opacity="0.9921568627450981" d="M 490.5 198 L 491 200.5 L 490 200.5 L 490.5 198 Z " /><path fill="rgb(118,54,234)" stroke="rgb(118,54,234)" stroke-width="1" opacity="0.9921568627450981" d="M 491.5 206 Q 493.8 206.8 493 210.5 L 492 210.5 L 491.5 206 Z " /><path fill="rgb(118,54,234)" stroke="rgb(118,54,234)" stroke-width="1" opacity="0.9921568627450981" d="M 18.5 212 L 19 214.5 L 18 214.5 L 18.5 212 Z " /><path fill="rgb(118,54,234)" stroke="rgb(118,54,234)" stroke-width="1" opacity="0.9921568627450981" d="M 494.5 218 L 495 220.5 L 494 220.5 L 494.5 218 Z " /><path fill="rgb(118,54,234)" stroke="rgb(118,54,234)" stroke-width="1" opacity="0.9921568627450981" d="M 495.5 233 L 497 237.5 L 496 237.5 L 495.5 233 Z " /><path fill="rgb(118,54,234)" stroke="rgb(118,54,234)" stroke-width="1" opacity="0.9921568627450981" d="M 15.5 237 L 16 240.5 L 15 240.5 L 15.5 237 Z " /><path fill="rgb(118,54,234)" stroke="rgb(118,54,234)" stroke-width="1" opacity="0.9921568627450981" d="M 496.5 269 L 497 271.5 L 496 271.5 L 496.5 269 Z " /><path fill="rgb(118,54,234)" stroke="rgb(118,54,234)" stroke-width="1" opacity="0.9921568627450981" d="M 15.5 271 L 16 276.5 L 15 276.5 L 15.5 271 Z " /><path fill="rgb(118,54,234)" stroke="rgb(118,54,234)" stroke-width="1" opacity="0.9921568627450981" d="M 496.5 273 L 497 275.5 L 496 275.5 L 496.5 273 Z " /><path fill="rgb(118,54,234)" stroke="rgb(118,54,234)" stroke-width="1" opacity="0.9921568627450981" d="M 16.5 282 L 17 286.5 L 16 286.5 L 16.5 282 Z " /><path fill="rgb(118,54,234)" stroke="rgb(118,54,234)" stroke-width="1" opacity="0.9921568627450981" d="M 495.5 284 L 496 286.5 L 495 286.5 L 495.5 284 Z " /><path fill="rgb(118,54,234)" stroke="rgb(118,54,234)" stroke-width="1" opacity="0.9921568627450981" d="M 494.5 289 L 495 293.5 L 494 293.5 L 494.5 289 Z " /><path fill="rgb(118,54,234)" stroke="rgb(118,54,234)" stroke-width="1" opacity="0.9921568627450981" d="M 17.5 290 L 18 293.5 L 17 293.5 L 17.5 290 Z " /><path fill="rgb(118,54,234)" stroke="rgb(118,54,234)" stroke-width="1" opacity="0.9921568627450981" d="M 18.5 295 L 19 299.5 L 18 299.5 L 18.5 295 Z " /><path fill="rgb(118,54,234)" stroke="rgb(118,54,234)" stroke-width="1" opacity="0.9921568627450981" d="M 493.5 297 L 494 299.5 L 493 299.5 L 493.5 297 Z " /><path fill="rgb(118,54,234)" stroke="rgb(118,54,234)" stroke-width="1" opacity="0.9921568627450981" d="M 491.5 306 L 492 308.5 L 491 308.5 L 491.5 306 Z " /><path fill="rgb(118,54,234)" stroke="rgb(118,54,234)" stroke-width="1" opacity="0.9921568627450981" d="M 24.5 322 L 26 327.5 L 25 327.5 L 24.5 322 Z " /><path fill="rgb(118,54,234)" stroke="rgb(118,54,234)" stroke-width="1" opacity="0.9921568627450981" d="M 487.5 323 L 488 324.5 L 486.5 328 L 486 325.5 L 487.5 323 Z " /><path fill="rgb(118,54,234)" stroke="rgb(118,54,234)" stroke-width="1" opacity="0.9921568627450981" d="M 26.5 329 L 28 331.5 L 26 330.5 L 26.5 329 Z " /><path fill="rgb(118,54,234)" stroke="rgb(118,54,234)" stroke-width="1" opacity="0.9921568627450981" d="M 484.5 333 L 484 334.5 L 483.5 337 L 483 334.5 L 484.5 333 Z " /><path fill="rgb(118,54,234)" stroke="rgb(118,54,234)" stroke-width="1" opacity="0.9921568627450981" d="M 28.5 336 L 30 339.5 L 29 339.5 L 28.5 336 Z " /><path fill="rgb(118,54,234)" stroke="rgb(118,54,234)" stroke-width="1" opacity="0.9921568627450981" d="M 30.5 341 L 32 343.5 L 30 342.5 L 30.5 341 Z " /><path fill="rgb(118,54,234)" stroke="rgb(118,54,234)" stroke-width="1" opacity="0.9921568627450981" d="M 481.5 341 L 482 342.5 L 480.5 345 L 480 343.5 L 481.5 341 Z " /><path fill="rgb(118,54,234)" stroke="rgb(118,54,234)" stroke-width="1" opacity="0.9921568627450981" d="M 33.5 349 L 38 358.5 L 37 358.5 L 33.5 349 Z " /><path fill="rgb(118,54,234)" stroke="rgb(118,54,234)" stroke-width="1" opacity="0.9921568627450981" d="M 477.5 351 L 477 352.5 L 476.5 355 L 476 352.5 L 477.5 351 Z " /><path fill="rgb(118,54,234)" stroke="rgb(118,54,234)" stroke-width="1" opacity="0.9921568627450981" d="M 473.5 360 L 473 361.5 L 470.5 367 L 470 365.5 L 473.5 360 Z " /><path fill="rgb(118,54,234)" stroke="rgb(118,54,234)" stroke-width="1" opacity="0.9921568627450981" d="M 39.5 361 L 47 375.5 L 46 375.5 L 39 362.5 L 39.5 361 Z " /><path fill="rgb(118,54,234)" stroke="rgb(118,54,234)" stroke-width="1" opacity="0.9921568627450981" d="M 469.5 368 L 469 369.5 L 468.5 371 L 468 369.5 L 469.5 368 Z " /><path fill="rgb(118,54,234)" stroke="rgb(118,54,234)" stroke-width="1" opacity="0.9921568627450981" d="M 467.5 372 L 466.5 374 L 467.5 372 Z " /><path fill="rgb(118,54,234)" stroke="rgb(118,54,234)" stroke-width="1" opacity="0.9921568627450981" d="M 125.5 374 L 127 375.5 L 127 387 L 180.5 387 L 181.5 388 L 332.5 388 L 333.5 387 L 386 387 L 386 376 L 391.5 376 L 395.5 378 L 406.5 380 L 412 384.5 L 408.5 389 L 392.5 394 L 386.5 394 L 373.5 397 L 371.5 397 Q 366 395.5 364.5 398 L 362.5 398 Q 356.2 396.2 354.5 399 L 352.5 399 L 342.5 399 L 341.5 400 L 339.5 400 L 327.5 400 L 325.5 401 L 323.5 401 L 305.5 401 L 303.5 402 L 301.5 401 L 300.5 402 L 204.5 402 L 201.5 401 L 199.5 401 L 181.5 401 L 179.5 400 L 177.5 400 L 165.5 400 L 163.5 399 L 161.5 399 L 152.5 399 L 151.5 398 L 149.5 398 L 141.5 398 L 132.5 396 L 130.5 396 L 117.5 395 L 112.5 393 L 103.5 392 L 95.5 389 L 93 386.5 Q 91.5 382.1 94.5 383 L 101.5 379 L 125.5 374 Z " /><path fill="rgb(118,54,234)" stroke="rgb(118,54,234)" stroke-width="1" opacity="0.9921568627450981" d="M 465.5 375 L 465 376.5 L 462.5 381 L 463 379.5 L 465.5 375 Z " /><path fill="rgb(118,54,234)" stroke="rgb(118,54,234)" stroke-width="1" opacity="0.9921568627450981" d="M 47.5 377 L 50 380.5 L 48 379.5 L 47.5 377 Z " /><path fill="rgb(118,54,234)" stroke="rgb(118,54,234)" stroke-width="1" opacity="0.9921568627450981" d="M 51.5 384 L 55 388.5 L 53 387.5 L 51.5 384 Z " /><path fill="rgb(118,54,234)" stroke="rgb(118,54,234)" stroke-width="1" opacity="0.9921568627450981" d="M 458 385 L 460 385.5 L 455.5 392 L 456 390.5 L 458 385 Z " /><path fill="rgb(118,54,234)" stroke="rgb(118,54,234)" stroke-width="1" opacity="0.9921568627450981" d="M 55.5 390 L 56.5 392 L 55.5 390 Z " /><path fill="rgb(118,54,234)" stroke="rgb(118,54,234)" stroke-width="1" opacity="0.9921568627450981" d="M 454.5 393 L 452.5 396 L 454.5 393 Z " /><path fill="rgb(118,54,234)" stroke="rgb(118,54,234)" stroke-width="1" opacity="0.9921568627450981" d="M 451.5 397 L 450 399.5 L 446.5 404 L 449 400.5 L 451.5 397 Z " /><path fill="rgb(118,54,234)" stroke="rgb(118,54,234)" stroke-width="1" opacity="0.9921568627450981" d="M 62.5 400 Q 64.8 399.3 64 401.5 L 64.5 403 L 62.5 400 Z " /><path fill="rgb(118,54,234)" stroke="rgb(118,54,234)" stroke-width="1" opacity="0.9921568627450981" d="M 66.5 404 L 68 406.5 L 66 405.5 L 66.5 404 Z " /><path fill="rgb(118,54,234)" stroke="rgb(118,54,234)" stroke-width="1" opacity="0.9921568627450981" d="M 445.5 405 L 443 408.5 L 439.5 413 L 442 409.5 L 445.5 405 Z " /><path fill="rgb(118,54,234)" stroke="rgb(118,54,234)" stroke-width="1" opacity="0.9921568627450981" d="M 69.5 408 L 72 411.5 L 69 409.5 L 69.5 408 Z " /><path fill="rgb(118,54,234)" stroke="rgb(118,54,234)" stroke-width="1" opacity="0.9921568627450981" d="M 437.5 414 L 436.5 416 L 437.5 414 Z " /><path fill="rgb(118,54,234)" stroke="rgb(118,54,234)" stroke-width="1" opacity="0.9921568627450981" d="M 76.5 417 L 84 423 L 85 425.5 L 76.5 417 Z " /><path fill="rgb(118,54,234)" stroke="rgb(118,54,234)" stroke-width="1" opacity="0.9921568627450981" d="M 432 419 L 434 419.5 L 431 421.5 L 432 419 Z " /><path fill="rgb(118,54,234)" stroke="rgb(118,54,234)" stroke-width="1" opacity="0.9921568627450981" d="M 429.5 423 L 425.5 428 L 429.5 423 Z " /><path fill="rgb(118,54,234)" stroke="rgb(118,54,234)" stroke-width="1" opacity="0.9921568627450981" d="M 88.5 429 L 95 434 L 94.5 436 L 88.5 429 Z " /><path fill="rgb(118,54,234)" stroke="rgb(118,54,234)" stroke-width="1" opacity="0.9921568627450981" d="M 423.5 429 L 417.5 436 L 416 435.5 L 423.5 429 Z " /><path fill="rgb(118,54,234)" stroke="rgb(118,54,234)" stroke-width="1" opacity="0.9921568627450981" d="M 97.5 437 L 103 441.5 L 101.5 442 L 97.5 437 Z " /><path fill="rgb(118,54,234)" stroke="rgb(118,54,234)" stroke-width="1" opacity="0.9921568627450981" d="M 414.5 437 L 409.5 443 L 404.5 446 L 404.5 445 L 414.5 437 Z " /><path fill="rgb(118,54,234)" stroke="rgb(118,54,234)" stroke-width="1" opacity="0.9921568627450981" d="M 104.5 443 L 108 445.5 L 106.5 446 L 104.5 443 Z " /><path fill="rgb(118,54,234)" stroke="rgb(118,54,234)" stroke-width="1" opacity="0.9921568627450981" d="M 109.5 447 L 112 448 L 111.5 450 L 109.5 447 Z " /><path fill="rgb(118,54,234)" stroke="rgb(118,54,234)" stroke-width="1" opacity="0.9921568627450981" d="M 402.5 447 L 400.5 450 L 402.5 447 Z " /><path fill="rgb(118,54,234)" stroke="rgb(118,54,234)" stroke-width="1" opacity="0.9921568627450981" d="M 113.5 450 L 114.5 452 L 113.5 450 Z " /><path fill="rgb(118,54,234)" stroke="rgb(118,54,234)" stroke-width="1" opacity="0.9921568627450981" d="M 398.5 450 L 397.5 452 L 398.5 450 Z " /><path fill="rgb(118,54,234)" stroke="rgb(118,54,234)" stroke-width="1" opacity="0.9921568627450981" d="M 116.5 452 L 119 453.5 L 117.5 454 L 116.5 452 Z " /><path fill="rgb(118,54,234)" stroke="rgb(118,54,234)" stroke-width="1" opacity="0.9921568627450981" d="M 394.5 453 L 393.5 455 L 389.5 457 L 389.5 456 L 394.5 453 Z " /><path fill="rgb(118,54,234)" stroke="rgb(118,54,234)" stroke-width="1" opacity="0.9921568627450981" d="M 120.5 455 L 125 458.5 L 122.5 457 L 120.5 455 Z " /><path fill="rgb(118,54,234)" stroke="rgb(118,54,234)" stroke-width="1" opacity="0.9921568627450981" d="M 385.5 459 L 384.5 461 L 382.5 462 L 383.5 460 L 385.5 459 Z " /><path fill="rgb(118,54,234)" stroke="rgb(118,54,234)" stroke-width="1" opacity="0.9921568627450981" d="M 131.5 462 L 135 464.5 L 133.5 464 L 131.5 462 Z " /><path fill="rgb(118,54,234)" stroke="rgb(118,54,234)" stroke-width="1" opacity="0.9921568627450981" d="M 380.5 462 L 379.5 464 L 380.5 462 Z " /><path fill="rgb(118,54,234)" stroke="rgb(118,54,234)" stroke-width="1" opacity="0.9921568627450981" d="M 372 466 L 374 466.5 L 372 467.5 L 372 466 Z " /><path fill="rgb(118,54,234)" stroke="rgb(118,54,234)" stroke-width="1" opacity="0.9921568627450981" d="M 139.5 467 L 142 468.5 L 140.5 468 L 139.5 467 Z " /><path fill="rgb(118,54,234)" stroke="rgb(118,54,234)" stroke-width="1" opacity="0.9921568627450981" d="M 143.5 469 L 146 470.5 L 144.5 470 L 143.5 469 Z " /><path fill="rgb(118,54,234)" stroke="rgb(118,54,234)" stroke-width="1" opacity="0.9921568627450981" d="M 365.5 470 L 364.5 472 L 365.5 470 Z " /><path fill="rgb(118,54,234)" stroke="rgb(118,54,234)" stroke-width="1" opacity="0.9921568627450981" d="M 147.5 471 L 151 472.5 L 149.5 473 L 147.5 471 Z " /><path fill="rgb(118,54,234)" stroke="rgb(118,54,234)" stroke-width="1" opacity="0.9921568627450981" d="M 152.5 473 Q 154.8 472.3 154 474.5 L 152.5 473 Z " /><path fill="rgb(118,54,234)" stroke="rgb(118,54,234)" stroke-width="1" opacity="0.9921568627450981" d="M 359.5 473 L 361 473.5 L 353.5 477 L 353.5 476 L 359.5 473 Z " /><path fill="rgb(118,54,234)" stroke="rgb(118,54,234)" stroke-width="1" opacity="0.9921568627450981" d="M 155.5 475 L 158 476.5 L 156.5 476 L 155.5 475 Z " /><path fill="rgb(118,54,234)" stroke="rgb(118,54,234)" stroke-width="1" opacity="0.9921568627450981" d="M 169.5 480 L 188 487.5 L 186.5 487 L 169 482 L 169.5 480 Z " /><path fill="rgb(118,54,234)" stroke="rgb(118,54,234)" stroke-width="1" opacity="0.9921568627450981" d="M 322.5 487 L 325 487.5 L 322.5 488 L 322.5 487 Z " /><path fill="rgb(118,54,234)" stroke="rgb(118,54,234)" stroke-width="1" opacity="0.9921568627450981" d="M 207.5 492 L 211 492.5 L 207.5 493 L 207.5 492 Z " /><path fill="rgb(118,54,234)" stroke="rgb(118,54,234)" stroke-width="1" opacity="0.9921568627450981" d="M 217.5 493 L 221 494.5 L 218.5 495 L 217.5 493 Z " /><path fill="rgb(118,54,234)" stroke="rgb(118,54,234)" stroke-width="1" opacity="0.9921568627450981" d="M 296.5 493 L 300 493.5 L 296.5 494 L 296.5 493 Z " /><path fill="rgb(118,54,234)" stroke="rgb(118,54,234)" stroke-width="1" opacity="0.9921568627450981" d="M 290.5 494 L 294 494.5 L 290.5 495 L 290.5 494 Z " /><path fill="rgb(118,54,234)" stroke="rgb(118,54,234)" stroke-width="1" opacity="0.9921568627450981" d="M 225.5 495 L 230 495.5 L 225.5 496 L 225.5 495 Z " /><path fill="rgb(118,54,234)" stroke="rgb(118,54,234)" stroke-width="1" opacity="0.9921568627450981" d="M 234.5 495 L 238 496.5 L 235.5 497 L 234.5 495 Z " /><path fill="rgb(118,54,234)" stroke="rgb(118,54,234)" stroke-width="1" opacity="0.9921568627450981" d="M 281.5 495 L 287 495.5 L 281.5 496 L 281.5 495 Z " /><path fill="rgb(118,54,234)" stroke="rgb(118,54,234)" stroke-width="1" opacity="0.9921568627450981" d="M 239.5 496 L 242 496.5 L 239.5 497 L 239.5 496 Z " /><path fill="rgb(118,54,234)" stroke="rgb(118,54,234)" stroke-width="1" opacity="0.9921568627450981" d="M 269.5 496 L 273 496.5 L 269.5 497 L 269.5 496 Z " /><path fill="rgb(118,54,234)" stroke="rgb(118,54,234)" stroke-width="1" opacity="0.9921568627450981" d="M 274.5 496 L 277 496.5 L 274.5 497 L 274.5 496 Z " /><path fill="rgb(0,0,0)" stroke="rgb(0,0,0)" stroke-width="1" opacity="0" d="M 0 0 L 512 0 L 512 512 L 0 512 L 0 0 Z M 236 15 L 235 16 L 226 16 L 225 17 L 213 18 L 195 22 L 158 35 Q 122 51 95 76 Q 57 109 35 158 L 22 195 L 18 213 L 17 225 L 16 226 L 16 235 L 15 236 L 15 277 L 16 278 L 16 287 L 22 318 L 30 343 Q 47 386 76 418 Q 109 455 158 477 L 195 490 L 213 494 L 225 495 L 226 496 L 235 496 L 236 497 L 277 497 L 278 496 L 287 496 L 314 491 L 340 483 Q 385 466 418 436 Q 455 403 477 355 L 490 318 L 494 300 L 495 288 L 496 287 L 496 278 L 497 277 L 497 236 L 496 235 L 496 226 L 490 195 L 482 170 Q 465 126 436 95 Q 399 53 343 30 L 310 20 L 287 16 L 278 16 L 277 15 L 236 15 Z " /><path fill="rgb(119,55,235)" stroke="rgb(119,55,235)" stroke-width="1" opacity="1" d="M 241.5 15 L 243.5 16 L 246.5 15 L 248.5 16 L 249.5 15 L 262.5 15 L 264.5 15 L 266.5 16 L 270.5 15 L 272.5 16 L 274.5 16 Q 279.3 14.8 280.5 17 L 282.5 16 L 295.5 19 L 302.5 19 Q 305.4 21.6 311.5 21 L 314.5 23 L 316.5 23 L 330.5 26 L 337.5 30 L 351.5 34 L 353.5 36 L 355 35.5 L 355 37 Q 358.7 35.5 358 38.5 L 360.5 39 L 367.5 43 L 369 42.5 Q 368.3 44.8 370.5 44 L 379 48 Q 377.9 50.7 380.5 50 L 384 51 L 384.5 53 L 386 52.5 L 387.5 55 L 407 67 L 408.5 70 L 418 77.5 Q 417.3 79.8 419.5 79 L 427 85 L 431 92 L 435 94.5 L 437 97.5 L 441 103 Q 443.7 101.9 443 104.5 L 446 106.5 L 445 107.5 L 448 110.5 L 456 120.5 L 458.5 127 L 460 126.5 L 459.5 128 Q 461.8 127.3 461 129.5 L 462 133 Q 464.7 131.9 464 134.5 L 470 144.5 L 469 145.5 L 472 148.5 L 474 151.5 L 473 154 Q 475.7 152.9 475 155.5 L 480 168.5 L 482 170.5 L 482 172.5 L 488 189.5 L 488 193.5 L 490 195.5 Q 489.3 202.2 492 205.5 L 492 207.5 L 494 214.5 L 494 216.5 L 496 227.5 L 495 229.5 L 496 232.5 L 495 234.5 L 497 238.5 L 496 240.5 L 497 243.5 L 496 248.5 L 497 249.5 L 497 262.5 L 496 264.5 L 497 268.5 L 496 271.5 L 496 273.5 L 497 276.5 L 495 282.5 L 495 284.5 L 494 296.5 L 492 303.5 Q 494.5 305 491 306.5 L 490 311.5 L 491 313.5 L 475 358 L 473 358.5 Q 475.5 360 472 361.5 L 468 371.5 L 459.5 385 Q 456.9 384.2 458 387.5 L 439 414 L 436 415.5 L 435 419 Q 431.2 417.5 432 420.5 L 431 423 L 425 427.5 Q 425.8 429.8 423.5 429 L 416 435 Q 417.1 437.7 414.5 437 L 404 445 Q 405.1 447.7 402.5 447 Q 397 453.4 389 456 Q 390.1 458.7 387.5 458 L 378.5 464 L 372 466 Q 373.1 468.7 370.5 468 L 367 469 L 366.5 471 Q 365 468.5 363.5 472 L 348 478 L 347.5 480 L 345.5 480 L 304.5 493 L 302.5 492 L 279.5 496 L 277.5 496 L 273.5 497 L 269.5 496 L 265.5 497 L 263.5 497 L 250.5 497 L 249.5 496 L 246.5 497 L 239.5 496 L 237.5 496 L 234.5 495 L 230.5 496 L 222.5 494 L 220.5 494 L 217.5 493 L 213.5 493 L 195.5 490 L 189.5 487 Q 188 489.5 186.5 486 L 169.5 480 L 167.5 480 L 160 478 L 159.5 476 Q 158 478.5 156.5 475 L 154 475 Q 155.1 472.3 152.5 473 L 151 473.5 Q 151.8 471.3 149.5 472 Q 136.8 467.2 127 459.5 L 126.5 458 L 125.5 459 L 122.5 456 L 118 454.5 L 118.5 453 L 112 450 Q 113.1 447.3 110.5 448 L 108 447 Q 109.1 444.3 106.5 445 L 103 443 Q 104.1 440.3 101.5 441 L 95 435.5 Q 95.8 433.3 93.5 434 L 87 429 L 87 427 Q 84.3 428.1 85 425.5 L 84 423 L 75 415.5 Q 75.8 413.3 73.5 414 L 70 408 Q 67 409.3 68 405.5 L 65 404 L 64 400 L 62 400 Q 63.1 397.3 60.5 398 L 60.5 396 Q 57.9 396.7 59 394 L 57 394 L 57 391.5 Q 46.2 378 40 361 Q 36.3 362.4 38 356.5 L 32 347.5 L 33 346.5 L 31 342.5 L 30 337.5 L 27 332.5 L 27 330.5 L 22 312.5 L 20 309.5 L 20 305.5 Q 17.7 302.3 19 295.5 L 17 289.5 L 15 265.5 L 15 263.5 Q 13.7 258.8 16 257.5 L 15 255.5 L 15 253.5 L 16 237.5 L 16 235.5 L 17 232.5 L 16 230.5 L 17 228.5 L 17 226.5 L 18 221.5 L 17 219.5 L 19 216.5 L 19 214.5 L 20 210.5 L 20 206.5 Q 19.4 201.9 22 200.5 L 22 198.5 Q 25.6 192.1 26 182.5 Q 29 179.5 29 173.5 L 31 171.5 L 32 164 Q 35 165.3 34 161.5 Q 39.4 155.3 41 146 Q 44.3 147.3 43 142.5 L 53 127.5 Q 50.5 126 54 124.5 L 56 121.5 L 63.5 111 Q 66.1 111.8 65 108.5 L 68 104 Q 70.7 105.1 70 102.5 Q 76.3 97.9 79 91 L 84 89 L 88.5 82 L 93 79.5 L 96.5 75 L 99.5 73 L 113.5 61 L 119 58.5 L 118.5 57 Q 123.7 56.7 125.5 53 Q 126.8 55.3 128 52.5 Q 127.3 50.3 129.5 51 L 146.5 41 Q 147.8 43.3 149 40.5 Q 148.2 37.9 151.5 39 L 154.5 37 L 156 37.5 Q 155.3 35.3 157.5 36 L 160 35.5 Q 159.2 32.9 162.5 34 L 170.5 30 L 186.5 26 L 188.5 24 L 190.5 24 L 196.5 23 L 199.5 21 L 203.5 21 Q 208.1 18.1 216.5 19 L 219.5 17 L 221.5 18 L 227.5 16 L 230.5 17 L 241.5 15 Z M 258 85 L 210 133 L 209 136 L 213 138 L 213 184 L 140 184 L 136 188 L 115 235 L 115 240 L 118 242 L 127 242 L 127 250 L 128 251 L 128 387 L 127 376 L 126 374 L 102 379 L 95 383 Q 91 382 93 387 L 96 389 L 104 392 L 113 393 L 118 395 L 131 396 L 133 396 L 142 398 L 150 398 L 152 398 L 153 399 L 162 399 L 164 399 L 166 400 L 178 400 L 180 400 L 182 401 L 200 401 L 202 401 L 205 402 L 301 402 L 302 401 L 304 402 L 306 401 L 324 401 L 326 401 L 328 400 L 340 400 L 342 400 L 343 399 L 353 399 L 355 399 Q 356 396 363 398 L 365 398 Q 366 396 372 397 L 374 397 L 387 394 L 393 394 L 409 389 L 412 385 L 407 380 L 396 378 L 392 376 L 386 376 L 386 244 L 385 243 L 395 242 L 397 240 L 397 235 L 376 188 L 373 184 L 301 184 L 299 183 L 299 139 L 308 138 L 309 134 L 261 85 L 258 85 Z " /><path fill="rgb(119,55,235)" stroke="rgb(119,55,235)" stroke-width="1" opacity="1" d="M 181.5 387 L 333 387.5 L 181.5 388 L 181.5 387 Z " /><path fill="rgb(71,77,85)" stroke="rgb(71,77,85)" stroke-width="1" opacity="1" d="M 251.5 149 L 261.5 149 L 269 153 L 273 160.5 L 274 165.5 L 272 173.5 L 266.5 180 L 258.5 183 L 253.5 183 Q 245.9 181.2 242 175.5 L 239 168.5 L 239 163.5 Q 240.4 155.9 245.5 152 L 251.5 149 Z M 254 151 L 248 154 Q 243 157 242 163 Q 241 170 244 174 L 253 180 Q 261 181 265 178 L 271 169 L 271 164 L 267 155 L 259 151 L 254 151 Z " /><path fill="rgb(71,77,85)" stroke="rgb(71,77,85)" stroke-width="1" opacity="1" d="M 256.5 155 L 258 156.5 L 258 167 L 246.5 167 L 246 165.5 L 247.5 164 L 255 164 L 255 156.5 L 256.5 155 Z " /><path fill="rgb(71,77,85)" stroke="rgb(71,77,85)" stroke-width="1" opacity="1" d="M 216 255 L 239 255 L 239 283 L 216 283 L 216 255 Z M 218 257 L 218 270 L 217 271 L 217 281 L 236 281 L 237 267 L 237 265 L 237 257 L 218 257 Z " /><path fill="rgb(71,77,85)" stroke="rgb(71,77,85)" stroke-width="1" opacity="1" d="M 245 255 L 268 255 L 268 283 L 245 283 L 245 255 Z M 247 257 L 247 281 L 266 281 L 266 257 L 247 257 Z " /><path fill="rgb(71,77,85)" stroke="rgb(71,77,85)" stroke-width="1" opacity="1" d="M 274 255 L 297 255 L 297 283 L 274 283 L 274 255 Z M 276 257 L 276 281 L 295 281 L 295 257 L 276 257 Z " /><path fill="rgb(71,77,85)" stroke="rgb(71,77,85)" stroke-width="1" opacity="1" d="M 136 264 L 158 264 L 158 292 L 136 292 L 136 264 Z M 138 266 L 138 291 L 156 291 L 157 290 L 157 266 L 138 266 Z " /><path fill="rgb(71,77,85)" stroke="rgb(71,77,85)" stroke-width="1" opacity="1" d="M 165 264 L 186.5 264 L 188 265.5 L 188 292 L 165 292 L 165 264 Z M 167 266 L 167 291 L 185 291 L 186 290 L 186 266 L 167 266 Z " /><path fill="rgb(71,77,85)" stroke="rgb(71,77,85)" stroke-width="1" opacity="1" d="M 327 264 L 348.5 264 L 350 265.5 L 350 292 L 327 292 L 327 264 Z M 329 266 L 328 290 L 330 291 L 347 291 L 348 277 L 348 275 L 348 266 L 329 266 Z " /><path fill="rgb(71,77,85)" stroke="rgb(71,77,85)" stroke-width="1" opacity="1" d="M 356 264 L 377.5 264 L 379 265.5 L 379 292 L 356 292 L 356 264 Z M 358 266 L 358 291 L 377 291 L 377 266 L 358 266 Z " /><path fill="rgb(71,77,85)" stroke="rgb(71,77,85)" stroke-width="1" opacity="1" d="M 216 291 L 239 291 L 239 317.5 L 237.5 319 L 216 319 L 216 291 Z M 233 292 L 232 293 L 218 293 L 217 316 L 219 317 L 236 317 L 236 307 L 237 306 L 236 302 Q 239 300 237 294 Q 236 291 233 292 Z " /><path fill="rgb(71,77,85)" stroke="rgb(71,77,85)" stroke-width="1" opacity="1" d="M 245 291 L 268 291 L 268 319 L 245 319 L 245 291 Z M 262 292 L 261 293 L 247 293 L 247 317 L 266 317 L 266 293 Q 266 291 262 292 Z " /><path fill="rgb(71,77,85)" stroke="rgb(71,77,85)" stroke-width="1" opacity="1" d="M 274 291 L 297 291 L 297 319 L 274 319 L 274 291 Z M 292 292 L 291 293 L 276 293 L 276 317 L 295 317 L 295 293 L 292 292 Z " /><path fill="rgb(71,77,85)" stroke="rgb(71,77,85)" stroke-width="1" opacity="1" d="M 136 299 L 158 299 L 158 327 L 136 327 L 136 299 Z M 138 301 L 138 325 L 157 325 L 157 301 L 138 301 Z " /><path fill="rgb(71,77,85)" stroke="rgb(71,77,85)" stroke-width="1" opacity="1" d="M 165 299 L 188 299 L 188 327 L 165 327 L 165 299 Z M 167 301 L 167 325 L 186 325 L 186 301 L 167 301 Z " /><path fill="rgb(71,77,85)" stroke="rgb(71,77,85)" stroke-width="1" opacity="1" d="M 327 299 L 350 299 L 350 325.5 L 348.5 327 L 327 327 L 327 299 Z M 329 301 L 328 324 L 330 325 L 347 325 L 348 311 L 348 309 L 348 301 L 329 301 Z " /><path fill="rgb(71,77,85)" stroke="rgb(71,77,85)" stroke-width="1" opacity="1" d="M 356 299 L 379 299 L 379 325.5 L 377.5 327 L 356 327 L 356 299 Z M 358 301 L 358 325 L 377 325 L 377 301 L 358 301 Z " /><path fill="rgb(71,77,85)" stroke="rgb(71,77,85)" stroke-width="1" opacity="1" d="M 228 327 L 284.5 327 L 286 328.5 L 286 375.5 L 284.5 377 L 228 377 L 228 327 Z M 230 329 L 230 375 L 255 375 L 255 329 L 230 329 Z M 258 329 L 258 375 L 283 375 L 283 329 L 258 329 Z " /><path fill="rgb(71,77,85)" stroke="rgb(71,77,85)" stroke-width="1" opacity="1" d="M 136 333 L 158 333 L 158 361 L 136 361 L 136 333 Z M 138 335 L 138 360 L 156 360 L 157 359 L 157 335 L 138 335 Z " /><path fill="rgb(71,77,85)" stroke="rgb(71,77,85)" stroke-width="1" opacity="1" d="M 165 333 L 188 333 L 188 361 L 165 361 L 165 333 Z M 167 335 L 167 360 L 185 360 L 186 359 L 186 335 L 167 335 Z " /><path fill="rgb(71,77,85)" stroke="rgb(71,77,85)" stroke-width="1" opacity="1" d="M 327 333 L 348.5 333 L 350 334.5 L 350 361 L 327 361 L 327 333 Z M 329 335 L 328 359 L 330 360 L 347 360 L 348 346 L 348 344 L 348 335 L 329 335 Z " /><path fill="rgb(71,77,85)" stroke="rgb(71,77,85)" stroke-width="1" opacity="1" d="M 356 333 L 377.5 333 L 379 334.5 L 379 361 L 356 361 L 356 333 Z M 358 335 L 358 360 L 376 360 L 377 359 L 377 335 L 358 335 Z " /><path fill="rgb(157,87,65)" stroke="rgb(157,87,65)" stroke-width="1" opacity="1" d="M 257.5 85 L 260.5 85 L 309 133.5 L 308 138 L 299.5 139 L 298.5 138 L 214.5 138 L 212.5 138 L 209 135.5 L 210 132.5 L 257.5 85 Z " /><path fill="rgb(157,87,65)" stroke="rgb(157,87,65)" stroke-width="1" opacity="1" d="M 253.5 148 L 260 148.5 L 253.5 149 L 253.5 148 Z " /><path fill="rgb(157,87,65)" stroke="rgb(157,87,65)" stroke-width="1" opacity="1" d="M 266.5 151 L 267.5 153 L 266.5 151 Z " /><path fill="rgb(157,87,65)" stroke="rgb(157,87,65)" stroke-width="1" opacity="1" d="M 269.5 154 L 270.5 156 L 269.5 154 Z " /><path fill="rgb(157,87,65)" stroke="rgb(157,87,65)" stroke-width="1" opacity="1" d="M 273.5 162 L 274 164.5 L 273 164.5 L 273.5 162 Z " /><path fill="rgb(157,87,65)" stroke="rgb(157,87,65)" stroke-width="1" opacity="1" d="M 273.5 166 L 274 168.5 L 273 168.5 L 273.5 166 Z " /><path fill="rgb(157,87,65)" stroke="rgb(157,87,65)" stroke-width="1" opacity="1" d="M 299.5 183 L 300.5 184 L 372.5 184 L 376 187.5 L 397 234.5 L 397 239.5 L 394.5 242 L 117.5 242 Q 113.8 240.8 115 234.5 L 136 187.5 L 139.5 184 L 212.5 184 L 213 184.5 L 213 196.5 L 214.5 198 L 241.5 198 L 256.5 187 L 270.5 198 L 299 198 L 299.5 183 Z M 256 193 L 202 235 L 201 237 L 312 237 L 256 193 Z " /><path fill="rgb(157,87,65)" stroke="rgb(157,87,65)" stroke-width="1" opacity="1" d="M 135.5 265 L 136 292 L 158 292 L 158 265.5 L 159 265.5 L 159 291.5 L 157.5 293 L 136.5 293 L 135 291.5 L 135.5 265 Z " /><path fill="rgb(157,87,65)" stroke="rgb(157,87,65)" stroke-width="1" opacity="1" d="M 216.5 290 L 238 290.5 L 216.5 291 L 216.5 290 Z " /><path fill="rgb(157,87,65)" stroke="rgb(157,87,65)" stroke-width="1" opacity="1" d="M 246.5 290 L 268 290.5 L 246.5 291 L 246.5 290 Z " /><path fill="rgb(157,87,65)" stroke="rgb(157,87,65)" stroke-width="1" opacity="1" d="M 275.5 290 L 297 290.5 L 275.5 291 L 275.5 290 Z " /><path fill="rgb(157,87,65)" stroke="rgb(157,87,65)" stroke-width="1" opacity="1" d="M 165.5 292 L 188 292.5 L 165.5 293 L 165.5 292 Z " /><path fill="rgb(157,87,65)" stroke="rgb(157,87,65)" stroke-width="1" opacity="1" d="M 327.5 292 L 350 292.5 L 327.5 293 L 327.5 292 Z " /><path fill="rgb(157,87,65)" stroke="rgb(157,87,65)" stroke-width="1" opacity="1" d="M 356.5 292 L 379 292.5 L 356.5 293 L 356.5 292 Z " /><path fill="rgb(157,87,65)" stroke="rgb(157,87,65)" stroke-width="1" opacity="1" d="M 136.5 298 L 157.5 298 L 159 299.5 L 158.5 327 L 158 299 L 136 299 L 136 326.5 L 135 326.5 L 135 299.5 L 136.5 298 Z " /><path fill="rgb(157,87,65)" stroke="rgb(157,87,65)" stroke-width="1" opacity="1" d="M 165.5 298 L 188 298.5 L 165.5 299 L 165.5 298 Z " /><path fill="rgb(157,87,65)" stroke="rgb(157,87,65)" stroke-width="1" opacity="1" d="M 327.5 298 L 349 298.5 L 327.5 299 L 327.5 298 Z " /><path fill="rgb(157,87,65)" stroke="rgb(157,87,65)" stroke-width="1" opacity="1" d="M 356.5 298 L 378 298.5 L 356.5 299 L 356.5 298 Z " /><path fill="rgb(157,87,65)" stroke="rgb(157,87,65)" stroke-width="1" opacity="1" d="M 227.5 327 L 228 376.5 L 227 376.5 L 227.5 327 Z " /><path fill="rgb(157,87,65)" stroke="rgb(157,87,65)" stroke-width="1" opacity="1" d="M 135.5 333 L 136 361 L 158 361 L 158 333.5 L 159 333.5 L 159 360.5 L 157.5 362 L 136.5 362 L 135 360.5 L 135.5 333 Z " /><path fill="rgb(157,87,65)" stroke="rgb(157,87,65)" stroke-width="1" opacity="1" d="M 165.5 361 L 187 361.5 L 165.5 362 L 165.5 361 Z " /><path fill="rgb(157,87,65)" stroke="rgb(157,87,65)" stroke-width="1" opacity="1" d="M 327.5 361 L 349 361.5 L 327.5 362 L 327.5 361 Z " /><path fill="rgb(157,87,65)" stroke="rgb(157,87,65)" stroke-width="1" opacity="1" d="M 356.5 361 L 378 361.5 L 356.5 362 L 356.5 361 Z " /><path fill="rgb(243,187,166)" stroke="rgb(243,187,166)" stroke-width="1" opacity="1" d="M 214.5 138 L 299 138 L 299 198 L 270.5 198 L 255.5 187 L 241.5 198 L 214.5 198 L 213 196.5 L 213 139.5 L 214.5 138 Z M 254 148 L 247 151 Q 241 155 239 162 Q 238 170 241 175 Q 245 181 253 183 Q 262 184 267 180 Q 272 176 274 169 Q 275 160 271 156 Q 266 148 254 148 Z " /><path fill="rgb(243,187,166)" stroke="rgb(243,187,166)" stroke-width="1" opacity="1" d="M 254.5 151 L 259 151.5 L 254.5 152 L 254.5 151 Z " /><path fill="rgb(243,187,166)" stroke="rgb(243,187,166)" stroke-width="1" opacity="1" d="M 247.5 154 L 245.5 157 L 247.5 154 Z " /><path fill="rgb(243,187,166)" stroke="rgb(243,187,166)" stroke-width="1" opacity="1" d="M 270.5 163 L 271 167.5 L 270 167.5 L 270.5 163 Z " /><path fill="rgb(243,187,166)" stroke="rgb(243,187,166)" stroke-width="1" opacity="1" d="M 267.5 174 L 265.5 177 L 267.5 174 Z " /><path fill="rgb(243,187,166)" stroke="rgb(243,187,166)" stroke-width="1" opacity="1" d="M 255.5 193 L 312 236.5 L 200.5 237 L 201.5 235 L 255.5 193 Z " /><path fill="rgb(243,187,166)" stroke="rgb(243,187,166)" stroke-width="1" opacity="1" d="M 127 242 L 196 242 L 196 377 L 188 377 L 188 382 L 181 382 L 180.5 387 L 128 387 L 128 250.5 L 127 249.5 L 127 242 Z M 137 264 L 135 266 L 135 292 L 137 293 L 158 293 L 159 292 L 159 266 L 158 264 L 137 264 Z M 165 264 L 165 293 L 188 293 L 188 264 L 165 264 Z M 137 298 L 135 300 L 135 327 L 159 327 L 159 300 L 158 298 L 137 298 Z M 165 298 L 165 327 L 188 327 L 188 298 L 165 298 Z M 135 333 L 135 361 L 137 362 L 158 362 L 159 361 L 159 333 L 135 333 Z M 165 333 L 165 362 L 187 362 L 188 361 L 188 333 L 165 333 Z " /><path fill="rgb(243,187,166)" stroke="rgb(243,187,166)" stroke-width="1" opacity="1" d="M 206 242 L 307 242 L 307 375.5 L 305.5 377 L 286 377 L 286 327 L 227 327 L 227 377 L 206 377 L 206 242 Z M 216 255 L 216 283 L 239 283 L 239 255 L 216 255 Z M 245 255 L 245 283 L 268 283 L 268 255 L 245 255 Z M 274 255 L 274 283 L 297 283 L 297 255 L 274 255 Z M 216 290 L 216 319 L 239 319 L 239 292 L 238 290 L 216 290 Z M 247 290 L 245 292 L 245 319 L 268 319 L 268 290 L 247 290 Z M 276 290 L 274 292 L 274 319 L 297 319 L 297 290 L 276 290 Z " /><path fill="rgb(243,187,166)" stroke="rgb(243,187,166)" stroke-width="1" opacity="1" d="M 316 242 L 384.5 242 L 386 243.5 L 386 387 L 333 387 L 333 382 L 326.5 382 L 327 380.5 L 327 377 L 317.5 377 L 317 376.5 L 317 249.5 L 316 248.5 L 316 242 Z M 327 264 L 327 293 L 350 293 L 350 264 L 327 264 Z M 356 264 L 356 293 L 379 293 L 379 264 L 356 264 Z M 327 298 L 327 327 L 350 327 L 350 300 L 349 298 L 327 298 Z M 356 298 L 356 327 L 379 327 L 379 300 L 378 298 L 356 298 Z M 327 333 L 327 362 L 349 362 L 350 361 L 350 333 L 327 333 Z M 356 333 L 356 362 L 378 362 L 379 361 L 379 333 L 356 333 Z " /><path fill="rgb(174,232,250)" stroke="rgb(174,232,250)" stroke-width="1" opacity="1" d="M 251.5 152 Q 264.4 150.1 268 157.5 Q 271.5 161.5 270 170.5 L 263.5 178 Q 260.6 180.6 254.5 180 L 245 174.5 L 242 164.5 Q 243.4 156.4 249.5 153 L 251.5 152 Z M 255 155 L 255 164 L 246 164 L 247 167 L 258 167 L 258 156 L 255 155 Z " /><path fill="rgb(174,232,250)" stroke="rgb(174,232,250)" stroke-width="1" opacity="1" d="M 196 242 L 205.5 242 L 206 242.5 L 206 377 L 305.5 377 L 307 375.5 L 307 242 L 316 242 L 316 248.5 L 317 249.5 L 317 377 L 327 377 L 327 380.5 L 326.5 382 L 333 382 L 333 387 L 181.5 387 L 181 382 L 188 382 L 188 377 L 195.5 377 L 196 376.5 L 196 242 Z " /><path fill="rgb(174,232,250)" stroke="rgb(174,232,250)" stroke-width="1" opacity="1" d="M 233.5 257 L 236 257 L 236 265 L 218.5 279 L 218 270.5 L 233.5 257 Z " /><path fill="rgb(174,232,250)" stroke="rgb(174,232,250)" stroke-width="1" opacity="1" d="M 262.5 257 L 265 257 L 265 265 L 263.5 265 L 247.5 280 L 247 271.5 L 262.5 257 Z " /><path fill="rgb(174,232,250)" stroke="rgb(174,232,250)" stroke-width="1" opacity="1" d="M 291.5 257 L 295 257 L 295 263.5 L 276.5 280 L 276 271.5 L 291.5 257 Z " /><path fill="rgb(174,232,250)" stroke="rgb(174,232,250)" stroke-width="1" opacity="1" d="M 152.5 267 L 156 267 L 156 273.5 L 138.5 289 L 138 280.5 L 152.5 267 Z " /><path fill="rgb(174,232,250)" stroke="rgb(174,232,250)" stroke-width="1" opacity="1" d="M 181.5 267 L 185 267 L 185 273.5 L 167.5 289 L 167 280.5 L 181.5 267 Z " /><path fill="rgb(174,232,250)" stroke="rgb(174,232,250)" stroke-width="1" opacity="1" d="M 343.5 267 L 347 267 L 347 273.5 L 329.5 289 L 329 279.5 L 343.5 267 Z " /><path fill="rgb(174,232,250)" stroke="rgb(174,232,250)" stroke-width="1" opacity="1" d="M 372.5 267 L 376 267 L 376 273.5 L 358.5 289 L 358 280.5 L 372.5 267 Z " /><path fill="rgb(174,232,250)" stroke="rgb(174,232,250)" stroke-width="1" opacity="1" d="M 235.5 268 L 227.5 277 L 222.5 281 L 228.5 274 L 235.5 268 Z " /><path fill="rgb(174,232,250)" stroke="rgb(174,232,250)" stroke-width="1" opacity="1" d="M 264.5 268 L 265 270 L 251.5 281 L 255.5 276 L 264.5 268 Z " /><path fill="rgb(174,232,250)" stroke="rgb(174,232,250)" stroke-width="1" opacity="1" d="M 294.5 268 L 291.5 272 L 280.5 281 L 283.5 277 L 294.5 268 Z " /><path fill="rgb(174,232,250)" stroke="rgb(174,232,250)" stroke-width="1" opacity="1" d="M 155.5 278 L 154.5 280 L 142.5 290 L 145.5 286 L 155.5 278 Z " /><path fill="rgb(174,232,250)" stroke="rgb(174,232,250)" stroke-width="1" opacity="1" d="M 184.5 278 L 181.5 282 L 171.5 290 L 173.5 287 L 184.5 278 Z " /><path fill="rgb(174,232,250)" stroke="rgb(174,232,250)" stroke-width="1" opacity="1" d="M 346.5 278 L 342.5 283 L 333.5 290 L 335.5 287 L 346.5 278 Z " /><path fill="rgb(174,232,250)" stroke="rgb(174,232,250)" stroke-width="1" opacity="1" d="M 375.5 278 L 370.5 284 L 362.5 290 L 364.5 287 L 375.5 278 Z " /><path fill="rgb(174,232,250)" stroke="rgb(174,232,250)" stroke-width="1" opacity="1" d="M 233.5 293 L 236 293 L 236 299.5 L 218.5 315 L 218 306.5 L 233.5 293 Z " /><path fill="rgb(174,232,250)" stroke="rgb(174,232,250)" stroke-width="1" opacity="1" d="M 262.5 293 L 265 293 L 265 299.5 L 247.5 315 L 247 306.5 L 262.5 293 Z " /><path fill="rgb(174,232,250)" stroke="rgb(174,232,250)" stroke-width="1" opacity="1" d="M 291.5 293 L 295 293 L 295 299.5 L 276.5 315 L 276 306.5 L 291.5 293 Z " /><path fill="rgb(174,232,250)" stroke="rgb(174,232,250)" stroke-width="1" opacity="1" d="M 153.5 301 L 156 301 L 156 307.5 L 138.5 323 L 138 314.5 L 153.5 301 Z " /><path fill="rgb(174,232,250)" stroke="rgb(174,232,250)" stroke-width="1" opacity="1" d="M 182.5 301 L 185 301 L 185 307.5 L 167.5 323 L 167 314.5 L 182.5 301 Z " /><path fill="rgb(174,232,250)" stroke="rgb(174,232,250)" stroke-width="1" opacity="1" d="M 344.5 301 L 347 301 L 347 307.5 L 329.5 323 L 329 314.5 L 344.5 301 Z " /><path fill="rgb(174,232,250)" stroke="rgb(174,232,250)" stroke-width="1" opacity="1" d="M 373.5 301 L 376 301 L 376 307.5 L 359.5 323 L 358 323 L 358 314.5 L 359.5 313 L 373.5 301 Z " /><path fill="rgb(174,232,250)" stroke="rgb(174,232,250)" stroke-width="1" opacity="1" d="M 235.5 304 L 230.5 310 L 221.5 317 L 221.5 316 L 235.5 304 Z " /><path fill="rgb(174,232,250)" stroke="rgb(174,232,250)" stroke-width="1" opacity="1" d="M 264.5 304 L 258.5 311 L 251.5 317 L 257.5 310 L 264.5 304 Z " /><path fill="rgb(174,232,250)" stroke="rgb(174,232,250)" stroke-width="1" opacity="1" d="M 294.5 304 L 293.5 306 L 280.5 317 L 285.5 311 L 294.5 304 Z " /><path fill="rgb(174,232,250)" stroke="rgb(174,232,250)" stroke-width="1" opacity="1" d="M 155.5 312 L 152.5 316 L 142.5 324 L 143.5 322 L 155.5 312 Z " /><path fill="rgb(174,232,250)" stroke="rgb(174,232,250)" stroke-width="1" opacity="1" d="M 184.5 312 L 180.5 317 L 172.5 324 L 180.5 315 L 184.5 312 Z " /><path fill="rgb(174,232,250)" stroke="rgb(174,232,250)" stroke-width="1" opacity="1" d="M 346.5 312 L 341.5 318 L 333.5 324 L 333.5 323 L 346.5 312 Z " /><path fill="rgb(174,232,250)" stroke="rgb(174,232,250)" stroke-width="1" opacity="1" d="M 375.5 312 L 369.5 319 L 362.5 324 L 362.5 323 L 375.5 312 Z " /><path fill="rgb(174,232,250)" stroke="rgb(174,232,250)" stroke-width="1" opacity="1" d="M 250.5 330 L 255 330 L 255 336.5 L 230.5 373 L 230 364.5 L 250.5 330 Z " /><path fill="rgb(174,232,250)" stroke="rgb(174,232,250)" stroke-width="1" opacity="1" d="M 278.5 330 L 283 330 L 283 336.5 L 258.5 373 L 258 364.5 L 278.5 330 Z " /><path fill="rgb(174,232,250)" stroke="rgb(174,232,250)" stroke-width="1" opacity="1" d="M 152.5 336 L 156 336 L 156 342.5 L 138.5 358 L 138 348.5 L 152.5 336 Z " /><path fill="rgb(174,232,250)" stroke="rgb(174,232,250)" stroke-width="1" opacity="1" d="M 181.5 336 L 185 336 L 185 342.5 L 167.5 358 L 167 348.5 L 181.5 336 Z " /><path fill="rgb(174,232,250)" stroke="rgb(174,232,250)" stroke-width="1" opacity="1" d="M 343.5 336 L 347 336 L 347 342.5 L 329.5 358 L 329 348.5 L 343.5 336 Z " /><path fill="rgb(174,232,250)" stroke="rgb(174,232,250)" stroke-width="1" opacity="1" d="M 372.5 336 L 376 336 L 376 342.5 L 358.5 358 L 358 349.5 L 372.5 336 Z " /><path fill="rgb(174,232,250)" stroke="rgb(174,232,250)" stroke-width="1" opacity="1" d="M 253.5 343 L 252.5 345 L 253.5 343 Z " /><path fill="rgb(174,232,250)" stroke="rgb(174,232,250)" stroke-width="1" opacity="1" d="M 251.5 346 L 251 347.5 L 237 374 L 234 373.5 L 251.5 346 Z " /><path fill="rgb(174,232,250)" stroke="rgb(174,232,250)" stroke-width="1" opacity="1" d="M 279.5 346 L 279 347.5 L 265 374 Q 261.3 375.5 262 372.5 L 279.5 346 Z " /><path fill="rgb(174,232,250)" stroke="rgb(174,232,250)" stroke-width="1" opacity="1" d="M 154.5 347 L 156 347.5 L 142.5 359 L 147.5 353 L 154.5 347 Z " /><path fill="rgb(174,232,250)" stroke="rgb(174,232,250)" stroke-width="1" opacity="1" d="M 184.5 347 L 182.5 350 L 171.5 359 L 174.5 355 L 184.5 347 Z " /><path fill="rgb(174,232,250)" stroke="rgb(174,232,250)" stroke-width="1" opacity="1" d="M 346.5 347 L 344.5 350 L 333.5 359 L 336.5 355 L 346.5 347 Z " /><path fill="rgb(174,232,250)" stroke="rgb(174,232,250)" stroke-width="1" opacity="1" d="M 375.5 347 L 371.5 352 L 362.5 359 L 365.5 355 L 375.5 347 Z " /></svg>